 <svg
            width="65"
            height="60"
            viewBox="0 0 65 60"
            fill="none"
            xmlns="http://www.w3.org/2000/svg"
          >
            <path
              d="M5.02693 13.5437L4.52532 13.7702L4.39587 14.3042C3.53826 17.6861 2.76156 20.5825 1.79069 24.5469L0.415283 27.411L1.06253 27.5081L3.53826 25.7605C8.7648 22.1845 15.4962 19.466 19.3473 17.8965C18.3603 19.7088 17.2276 21.5049 15.9169 23.5761C11.2243 30.9871 5.38292 40.2104 2.56739 57.9288L1.61269 59.9191L2.22758 60L14.3311 54.5308C14.3311 54.5308 16.5803 53.4466 16.7098 50.7282C16.9363 45.712 17.8425 40.8253 19.137 36.2622C17.5836 40.4531 16.3053 44.9353 15.6256 49.6278C15.4962 50.4855 15.2535 52.0227 12.7616 53.479L3.21464 57.8479C7.11431 33.2686 16.9687 25.1942 21.1758 15.5016C21.1758 15.5016 10.0269 19.3204 2.40557 24.5469C3.31172 20.8253 4.12078 17.8641 5.01075 14.3042C13.4088 10.5502 32.5998 2.03885 32.9072 1.92558C32.8263 2.49193 32.7292 3.13918 32.6159 3.83497L34.1693 0.906166L34.3311 0.178011C34.3311 0.16183 21.4671 6.18125 5.02693 13.5437Z"
              fill="#9CA2A6"
            />
            <path
              d="M34.2988 0.0647249C34.1855 0.113269 23.425 4.69256 4.50913 13.1715L3.95897 13.4142L3.81334 13.9968C3.48972 15.2913 3.16609 16.521 2.84247 17.767C2.32467 19.7573 1.79069 21.7961 1.19198 24.2395L0.415283 27.411L3.11755 25.5663C8.21464 22.0712 14.7033 19.4175 18.6353 17.8317C17.6807 19.5631 16.5965 21.2783 15.3506 23.2524C10.658 30.6796 4.8004 39.9029 1.98486 57.6537L1.62888 59.9353L13.7972 54.4013C13.8295 54.3851 16.3538 53.1715 16.8069 50.3722C18.781 38.1877 24.1208 27.4757 29.5739 17.7346C30.3829 16.2783 31.2405 14.7735 31.9363 13.4466L32.001 13.3333L32.0334 13.2362C32.9396 10.3398 33.6353 5.67961 34.0884 2.60518L34.4606 0L34.2988 0.0647249ZM30.8198 12.8641C26.5318 20.9223 17.891 34.1909 15.6418 49.6278C15.5124 50.4854 15.2697 52.0227 12.7777 53.479L3.23082 57.8479C7.13049 33.2686 16.9849 25.1942 21.192 15.5016C21.192 15.5016 10.0431 19.3204 2.42176 24.5469C3.3279 20.8252 4.13697 17.8641 5.02693 14.3042C13.425 10.5502 32.6159 2.03883 32.9234 1.92557C32.4703 4.88673 31.7583 9.88673 30.8198 12.8641Z"
              fill="#9CA2A6"
            />
            <path
              d="M31.7098 3.52759C31.2729 6.39167 30.8198 9.32047 30.0917 11.6506C29.412 12.9289 28.6192 14.3528 27.7616 15.8739C23.1337 24.1425 16.6774 35.8253 14.7842 48.8674C14.6709 49.6765 14.4768 51.0195 12.1629 52.3787L5.56092 55.4046C5.56092 55.4046 4.44441 55.6312 3.79716 57.0875L12.5674 53.0745C14.8813 51.7153 15.0755 50.3723 15.1887 49.5632C17.0981 36.5211 23.4412 25.1781 28.069 16.9095C28.9104 15.4046 29.7195 13.9645 30.3991 12.6862C31.2243 10.0001 31.8878 5.6797 32.3409 2.65381C32.2114 2.73471 31.9201 2.94507 31.7098 3.52759ZM21.0787 15.0648C19.9137 15.4208 10.3829 18.835 3.11755 23.5276C3.247 23.026 4.20169 21.8771 4.71949 21.5697C12.1467 17.2655 20.3182 14.4499 20.5609 14.4499L21.5156 14.1101L21.2729 14.6279C21.2243 14.7735 21.1434 14.9192 21.0787 15.0648Z"
              fill="#9CA2A6"
            />
            <path
              d="M30.2697 33.8349C29.5416 29.4174 30.2697 25.8252 31.0788 21.6828C29.315 21.0841 27.3895 20.9061 25.4154 21.2297C19.04 22.2815 14.7196 28.3171 15.7714 34.6925C16.8231 41.0679 22.8587 45.3883 29.2341 44.3365C34.1209 43.5275 37.794 39.8058 38.7811 35.2265C39.0723 33.8349 34.0238 37.4271 33.7649 35.9223"
              fill="#9CA2A6"
            />
            <path
              d="M19.8814 33.0258C19.671 33.0258 19.4607 33.0096 19.2341 32.9934C18.9267 32.33 18.7163 31.618 18.6354 30.8575C18.2147 27.1196 20.9008 23.7539 24.6386 23.3332C24.8975 23.3008 25.1564 23.2847 25.3992 23.2847C26.1273 23.2847 26.8393 23.3979 27.5027 23.6245C27.5513 23.8672 27.5998 24.1099 27.616 24.3688C28.1014 28.6407 25.027 32.4918 20.7552 32.9772C20.4639 33.0096 20.1726 33.0258 19.8814 33.0258Z"
              fill="#9CA2A6"
            />
            <path
              d="M63.247 7.20066C62.5512 6.48869 61.6127 6.10034 60.5123 6.10034C59.6547 6.10034 58.6839 6.32688 57.6321 6.77995C57.2761 6.94177 54.3149 8.31717 52.1628 9.33659L33.0852 17.8803L32.9557 17.945C32.2761 18.3172 31.0301 19.4499 30.7551 21.2945C30.4314 23.4304 29.9298 26.0518 29.5253 28.1553C29.3797 28.9159 29.2502 29.5955 29.1369 30.1942C28.8457 31.8932 29.3311 33.6893 30.4314 34.9838C31.5318 36.2783 33.1499 36.9903 34.9784 36.9903C36.1596 36.9903 37.4055 36.699 38.7162 36.1327C39.1046 35.9709 50.0431 30.8738 50.4638 30.6311C52.0657 29.6926 53.522 27.4434 53.9104 25.3075C54.0237 24.6602 54.0722 24.3851 54.1207 24.0291C54.1369 23.9806 54.1369 23.9482 54.1531 23.8997C54.1693 23.7864 54.1855 23.6893 54.2017 23.5761C54.8004 23.2363 55.7712 22.6537 56.6612 22.0227C62.3246 17.9612 64.3796 15.0324 64.5253 10.7929C64.5253 10.712 64.5738 8.57607 63.247 7.20066ZM42.8101 32.3301C42.2114 32.6699 38.7648 34.3851 38.0366 34.6926C32.5835 37.1036 29.4929 33.3657 30.0593 29.9838C30.4638 27.7994 31.2243 23.9968 31.6774 21.068C31.9525 19.288 33.2955 18.5437 33.2955 18.5437L34.3473 18.123C34.3473 18.123 37.2923 16.8123 38.5382 16.2621C38.2146 16.8932 37.7777 18.4628 37.6159 19.3366C37.0172 22.7508 36.3538 26.3269 35.7389 29.7087C35.2373 32.0227 36.4509 32.9126 37.6483 32.3139C38.2308 32.0227 38.247 31.5049 38.247 31.5049C38.247 31.5049 40.2858 20.7767 40.8521 16.6829C40.9978 15.5987 41.8716 14.7735 42.3894 14.4822C43.9266 13.6084 46.8554 12.5243 47.3894 12.1845C47.2599 12.3301 46.9686 12.8317 46.823 13.9321C46.0625 19.6278 44.6871 28.9806 44.2664 30.3722C44.1369 30.8738 43.8942 31.699 42.8101 32.3301ZM63.166 10.3722C62.8586 18.2524 53.2146 22.3139 52.9557 22.4596C52.9072 22.7508 52.8586 23.0421 52.8101 23.3333C52.8101 23.3657 52.7939 23.3981 52.7777 23.4304C52.7292 23.7864 52.6968 24.0453 52.5673 24.7249C52.2114 26.6343 50.9007 28.5437 49.6709 29.2719C49.2178 29.5308 48.522 29.8706 47.8263 30.1942C47.7615 30.2427 47.713 30.2751 47.6644 30.2913C46.7583 30.6796 45.9978 30.9871 45.7551 31.1489C45.7712 31.1327 45.7874 31.1165 45.8036 31.1003C45.7389 31.1327 45.7065 31.1489 45.6742 31.1651C46.0787 30.1942 46.2729 29.4175 46.4508 28.5437C47.2275 22.8155 48.4897 14.288 48.8942 12.9774C49.0398 12.4919 49.2826 11.6829 50.3667 11.0518C50.9654 10.712 57.357 7.71846 57.9072 7.49193C63.1337 5.19419 63.1822 10.0647 63.166 10.3722Z"
              fill="#9CA2A6"
            />
            <path
              d="M55.4799 9.87051C55.4152 9.90287 55.2696 9.99996 55.2696 9.99996C55.2696 9.99996 54.2664 15.1618 53.4249 19.7896C54.0722 19.3042 56.823 17.233 57.1628 12.5242C57.1952 12.2653 57.632 8.83491 55.4799 9.87051Z"
              fill="#9CA2A6"
            />
            <path
              d="M63.0366 6.79612C62.3408 6.08415 61.4023 5.6958 60.302 5.6958C59.4444 5.6958 58.4735 5.92234 57.4217 6.37541C57.0657 6.53722 54.1046 7.91263 51.9525 8.93205L32.8748 17.4757L32.7454 17.5405C32.0657 17.9126 30.8198 19.0453 30.5447 20.89C30.2211 23.0259 29.7195 25.6473 29.3149 27.7508C29.1693 28.5113 29.0399 29.1909 28.9266 29.7897C28.6353 31.4887 29.1208 33.2848 30.2211 34.5793C31.3214 35.8738 32.9395 36.5858 34.768 36.5858C35.9492 36.5858 37.1952 36.2945 38.5059 35.7282C38.8942 35.5664 49.8327 30.4693 50.2534 30.2265C51.8554 29.288 53.3117 27.0388 53.7 24.9029C53.8133 24.2557 53.8619 23.9806 53.9104 23.6246C53.9266 23.5761 53.9266 23.5437 53.9428 23.4952C53.9589 23.3819 53.9751 23.2848 53.9913 23.1715C54.59 22.8317 55.5609 22.2492 56.4508 21.6181C62.1143 17.5566 64.1693 14.6278 64.3149 10.3884C64.3149 10.3236 64.3635 8.18771 63.0366 6.79612ZM42.8101 32.3301C42.2114 32.6699 38.7648 34.3851 38.0366 34.6926C32.5835 37.1036 29.4929 33.3657 30.0593 29.9838C30.4638 27.7994 31.2243 23.9968 31.6774 21.068C31.9525 19.288 33.2955 18.5437 33.2955 18.5437L34.3473 18.123C34.3473 18.123 37.2923 16.8123 38.5382 16.2621C38.2146 16.8932 37.7777 18.4628 37.6159 19.3366C37.0172 22.7508 36.3538 26.3269 35.7389 29.7087C35.2373 32.0227 36.4509 32.9126 37.6483 32.3139C38.2308 32.0227 38.247 31.5049 38.247 31.5049C38.247 31.5049 40.2858 20.7767 40.8521 16.6829C40.9978 15.5987 41.8716 14.7735 42.3894 14.4822C43.9266 13.6084 46.8554 12.5243 47.3894 12.1845C47.2599 12.3301 46.9687 12.8317 46.823 13.932C46.0625 19.6278 44.6871 28.9806 44.2664 30.3722C44.1369 30.8738 43.8942 31.699 42.8101 32.3301ZM63.1661 10.3722C62.8586 18.2524 53.2146 22.3139 52.9557 22.4596C52.9072 22.7508 52.8586 23.0421 52.8101 23.3333C52.8101 23.3657 52.7939 23.3981 52.7777 23.4304C52.7292 23.7864 52.6968 24.0453 52.5674 24.7249C52.2114 26.6343 50.9007 28.5437 49.6709 29.2719C49.2178 29.5308 48.5221 29.8706 47.8263 30.1942C47.7615 30.2427 47.713 30.2751 47.6644 30.2913C46.7583 30.6796 45.9978 30.9871 45.7551 31.1489C45.7712 31.1327 45.7874 31.1165 45.8036 31.1003C45.7389 31.1327 45.7065 31.1489 45.6742 31.1651C46.0787 30.1942 46.2729 29.4175 46.4509 28.5437C47.2276 22.8155 48.4897 14.288 48.8942 12.9774C49.0399 12.4919 49.2826 11.6829 50.3667 11.0518C50.9654 10.712 57.357 7.71845 57.9072 7.49192C63.1337 5.19418 63.1822 10.0647 63.1661 10.3722Z"
              fill="#9CA2A6"
            />
            <path
              d="M55.4799 9.87051C55.4152 9.90287 55.2696 9.99996 55.2696 9.99996C55.2696 9.99996 54.2663 15.1618 53.4249 19.7896C54.0722 19.3042 56.823 17.233 57.1628 12.5242C57.1951 12.2653 57.632 8.83491 55.4799 9.87051Z"
              fill="#9CA2A6"
            />
            <path
              d="M61.9848 7.89648C62.4056 8.75409 62.3732 9.72496 62.3732 9.74114C62.1143 16.5211 54.7195 20.4208 52.4703 21.4564C52.4217 21.4887 52.3732 21.5049 52.3732 21.5049L52.2114 21.5858C52.2114 21.5858 52.0819 22.3463 52.0334 22.6376C52.0334 22.6538 52.0172 22.6861 52.0172 22.7023V22.7185V22.7347C51.9687 23.0907 51.9363 23.3496 51.8068 24.013C51.467 25.89 50.1564 27.6699 49.0884 28.301C48.7486 28.4952 48.2308 28.7541 47.5188 29.0939C47.4865 29.0777 47.2114 29.5955 46.3376 30.4369L46.9201 30.178C47.0172 30.1295 47.535 29.9191 47.535 29.9191C47.5512 29.9191 47.5674 29.903 47.6321 29.8544L47.6645 29.8382L47.6968 29.822C48.5382 29.4337 49.1369 29.1424 49.5091 28.9159C50.5771 28.2848 51.8878 26.5049 52.2276 24.6279C52.3408 23.9806 52.3894 23.7217 52.4379 23.3496V23.3334V23.3172C52.4379 23.2848 52.4541 23.2686 52.4541 23.2525C52.5026 22.9774 52.6321 22.2007 52.6321 22.2007L52.7939 22.1198C52.8101 22.1198 52.8424 22.1036 52.891 22.0712C55.1564 21.0356 62.535 17.136 62.7939 10.356C62.7939 10.356 62.8263 8.81881 61.9848 7.89648ZM46.6612 12.9774C46.4832 13.0583 46.0463 13.4466 45.9169 14.3204C45.0593 20.2428 43.8942 28.4305 43.5059 29.6764C43.3602 30.1457 43.1499 30.8415 42.2114 31.3916C41.645 31.7153 38.2146 33.4143 37.4865 33.7379C36.3861 34.2233 35.3344 34.4661 34.3635 34.4661C32.5997 34.4661 31.548 33.657 30.9816 32.9936C30.9654 32.9612 30.9492 32.945 30.9169 32.9127C31.0463 33.1554 31.2081 33.3981 31.3861 33.6085C31.9525 34.2881 33.0043 35.0809 34.768 35.0809C35.7389 35.0809 36.7745 34.8382 37.891 34.3528C38.6192 34.0292 42.0657 32.3301 42.6159 32.0065C43.5706 31.4564 43.781 30.7606 43.9104 30.2913C44.3149 28.9806 45.658 19.8706 46.4509 13.9159C46.5156 13.5437 46.5803 13.2363 46.6612 12.9774ZM54.2502 10.6149C54.1531 11.1489 53.0852 16.6991 52.6483 19.0777L52.4056 20.3884L53.0204 19.9191C53.4412 17.5729 54.8651 10.1942 54.8813 10.1295C54.4444 10.3237 54.2502 10.6149 54.2502 10.6149ZM37.8425 16.9903C37.5836 17.7509 37.357 18.7055 37.2437 19.2881C36.8716 21.4564 36.4509 23.7217 36.0463 25.9062C35.8198 27.1683 35.5933 28.4305 35.3667 29.6441C35.1887 30.5017 35.2049 31.246 35.4476 31.8285C35.3991 31.78 35.3505 31.7314 35.302 31.6667C34.8327 31.0842 34.7033 30.1295 34.946 29.013C35.1725 27.7832 35.3991 26.5373 35.6256 25.2751C36.0302 23.0907 36.4509 20.8253 36.823 18.657C36.9848 17.7185 37.6159 17.0874 37.8425 16.9903Z"
              fill="#9CA2A6"
            />
            <path
              d="M55.917 24.4822C55.9979 24.4822 56.0464 24.4337 56.0464 24.3851C56.0464 24.3204 55.9979 24.288 55.917 24.288H55.7551V24.4984H55.917V24.4822ZM55.5124 24.0777H55.917C56.1273 24.0777 56.2729 24.1586 56.2729 24.3689C56.2729 24.4984 56.2082 24.5955 56.0949 24.644L56.3053 24.9353H56.0302L55.8522 24.6764H55.7551V24.9353H55.5124V24.0777ZM56.5804 24.5146C56.5804 24.11 56.2729 23.8026 55.8684 23.8026C55.4639 23.8026 55.1564 24.1262 55.1564 24.5146C55.1564 24.9029 55.4639 25.2265 55.8684 25.2265C56.2729 25.2427 56.5804 24.9191 56.5804 24.5146ZM55.0593 24.5307C55.0593 24.0938 55.4153 23.7217 55.8684 23.7217C56.3215 23.7217 56.6775 24.0938 56.6775 24.5307C56.6775 24.9676 56.3215 25.3398 55.8684 25.3398C55.4153 25.3236 55.0593 24.9676 55.0593 24.5307Z"
              fill="#9CA2A6"
            />
          </svg>