<svg
            width="148"
            height="20"
            viewBox="0 0 148 20"
            fill="none"
            xmlns="http://www.w3.org/2000/svg"
          >
            <path
              d="M13.6486 0.299376C10.7652 -0.333564 7.88178 0.158723 4.99839 0.721337C4.85773 0.721337 4.71708 0.86199 4.64675 1.00264C4.22479 2.12787 3.87316 3.39375 3.4512 4.5893C5.06871 4.23767 6.54557 3.88604 8.02243 3.60473C9.42897 3.32342 10.9058 3.2531 12.3124 3.81571C13.8596 4.44865 14.6331 5.85519 14.2112 7.4727C14.1409 7.4727 14.0002 7.54303 13.9299 7.4727C12.5233 7.40237 11.1168 7.33205 9.71027 7.40237C7.6708 7.4727 5.63133 7.82433 3.80283 8.80891C2.3963 9.5825 1.27107 10.6374 0.778784 12.1846C-0.135463 15.3493 1.48205 18.2327 4.71708 19.3579C6.75655 19.9909 8.79603 19.9909 10.8355 19.8502C12.9453 19.7095 15.0551 19.2876 16.9539 18.2327C17.2352 18.092 17.5165 17.7404 17.5869 17.4591C18.0792 14.2944 18.5714 11.1297 18.9934 7.89466C19.4857 3.95636 17.5165 1.1433 13.6486 0.299376ZM13.2266 15.4899C13.2266 15.6306 13.0156 15.7712 12.875 15.8416C11.1871 16.2635 9.49929 16.6152 7.74113 16.1932C6.54557 15.9119 5.77198 15.2086 5.70165 14.2241C5.561 12.8879 6.05329 11.833 7.17851 11.2703C9.28831 10.2154 11.5388 10.3561 13.9299 10.6374C13.7189 12.3252 13.5079 13.8724 13.2266 15.4899Z"
              fill="#9CA2A6"
            />
            <path
              d="M63.018 15.7003C61.2598 14.9267 60.3455 12.9575 60.9081 11.2697C65.4091 11.2697 69.8396 11.2697 74.5515 11.2697C74.6218 9.51154 74.8328 7.82369 74.6219 6.20618C74.2702 3.18213 72.5824 1.07233 69.5583 0.369064C65.3387 -0.685836 60.6972 0.439391 57.7434 4.79965C56.1963 7.12043 55.5633 9.65219 55.8446 12.3949C56.1963 16.0519 58.3764 18.7243 61.963 19.6386C64.7761 20.3418 67.5189 19.9199 70.2616 19.2166C70.4022 19.1463 70.6132 19.076 70.6836 18.9353C71.1055 17.7398 71.5275 16.4739 71.8791 15.2783C70.5429 15.5596 69.277 15.9113 68.0111 16.1222C66.464 16.4036 64.7058 16.4739 63.018 15.7003ZM65.7607 3.39311C68.9254 2.8305 70.8242 4.79965 70.1913 8.105C67.2375 8.105 64.3542 8.105 61.4708 8.105C61.5411 6.06553 63.5806 3.81507 65.7607 3.39311Z"
              fill="#9CA2A6"
            />
            <path
              d="M83.5533 3.74475C84.6785 3.6041 85.8037 3.53377 86.8586 3.67443C87.9135 3.81508 88.9684 4.23704 90.0937 4.51835C90.4453 3.39312 90.8673 2.26789 91.2892 1.07234C88.6871 0.228419 86.1554 -0.193541 83.5533 0.087766C81.7951 0.228419 80.1776 0.720706 78.8414 1.84593C76.2393 3.95573 76.3096 7.61272 78.9117 9.6522C79.7556 10.2851 80.7402 10.7774 81.7248 11.4104C82.3577 11.762 82.9907 12.1136 83.5533 12.5356C84.8192 13.5202 84.6082 14.997 83.2016 15.63C82.4984 15.9113 81.6545 16.0519 80.8105 16.1223C78.8414 16.2629 77.0129 15.7706 75.2547 14.9267C74.8328 16.1926 74.4811 17.3881 74.1295 18.654C77.0129 19.6386 79.8963 20.0605 82.9203 19.7089C84.5379 19.4979 86.0147 19.0056 87.3509 18.0914C89.2497 16.6849 90.0233 14.5047 89.3904 12.3246C89.0388 10.9884 88.0542 10.0742 86.929 9.37089C85.6631 8.5973 84.3269 7.89403 83.061 7.12044C82.3577 6.69848 81.7951 6.13586 81.9358 5.22161C82.0764 4.37769 82.7797 3.88541 83.5533 3.74475Z"
              fill="#9CA2A6"
            />
            <path
              d="M99.8691 0.158071C98.3219 0.369051 96.9154 0.861338 95.6495 1.77558C93.1177 3.67441 92.7661 7.75335 95.6495 9.7225C96.4231 10.2851 97.267 10.7774 98.1109 11.2697C98.7439 11.6916 99.4471 11.973 100.08 12.4652C101.487 13.4498 101.346 15.0673 99.7284 15.7003C99.0252 15.9816 98.2516 16.1222 97.478 16.1222C95.5088 16.2629 93.6803 15.7706 91.8519 14.9267C91.4299 16.1926 91.0783 17.3881 90.7266 18.654C93.6803 19.6386 96.5637 20.0605 99.5175 19.7089C101.205 19.4979 102.752 19.0056 104.089 17.8804C106.831 15.7003 106.831 11.9026 104.089 9.79283C103.315 9.15989 102.401 8.73793 101.557 8.17531C100.854 7.75335 100.15 7.40172 99.4471 6.97976C98.8845 6.62813 98.4626 6.06551 98.5329 5.29192C98.6032 4.51833 99.0955 4.02604 99.7988 3.81506C100.572 3.60408 101.416 3.3931 102.19 3.46343C103.737 3.67441 105.214 4.02604 106.761 4.37767C107.113 3.3931 107.464 2.26787 107.886 1.00199C105.284 0.228398 102.612 -0.193563 99.8691 0.158071Z"
              fill="#9CA2A6"
            />
            <path
              d="M33.6213 3.81517C34.9575 3.88549 36.2937 4.23713 37.6299 4.51843C37.9816 3.46353 38.3332 2.33831 38.7552 1.14275C38.6145 1.07243 38.5442 1.0021 38.4035 1.0021C36.1531 0.0878526 33.762 -0.0528009 31.3709 0.0878525C25.4634 0.509813 21.3845 4.58876 21.0328 10.4962C20.7515 14.8565 23.1426 18.3025 27.1513 19.4277C29.683 20.131 32.2851 19.8497 34.8169 19.4277C35.0279 19.4277 35.2388 19.2167 35.3092 19.0057C35.7311 17.8102 36.1531 16.6146 36.575 15.3487C36.2937 15.4191 36.0828 15.4894 35.8718 15.4894C34.6059 15.7004 33.2697 15.9817 32.0038 15.9817C28.2062 15.9817 25.8151 12.8873 26.5183 9.16C27.1513 5.78431 30.0347 3.60419 33.6213 3.81517Z"
              fill="#9CA2A6"
            />
            <path
              d="M51.1327 3.81514C52.4689 3.88546 53.8051 4.2371 55.2116 4.5184C55.5632 3.4635 55.9149 2.33828 56.3368 1.14272C56.1962 1.0724 56.0555 1.00207 55.9852 0.931744C53.8051 0.0878233 51.5546 -0.0528301 49.3042 0.0174966C42.6935 0.36913 38.2629 5.22167 38.5442 11.7621C38.6848 15.419 40.9353 18.3024 44.4516 19.4277C47.0537 20.2013 49.6558 19.92 52.2579 19.498C52.3985 19.498 52.6799 19.287 52.6799 19.1464C53.1018 17.9508 53.5238 16.6849 54.0161 15.3487C53.5941 15.419 53.2425 15.5597 52.9612 15.63C51.7656 15.7707 50.4997 16.052 49.3042 16.052C45.7175 15.9817 43.3264 13.0279 43.889 9.44127C44.5923 5.85461 47.4054 3.60416 51.1327 3.81514Z"
              fill="#9CA2A6"
            />
            <path
              d="M138.478 0.228516C137.424 1.21309 136.439 2.12734 135.454 3.04158C137.705 5.36236 139.955 7.68315 142.206 10.0039C140.026 12.2544 137.775 14.5752 135.595 16.8959C136.509 17.7399 137.494 18.6541 138.478 19.6387C141.573 16.4037 144.808 13.0983 147.762 10.0039C144.738 6.83923 141.573 3.46354 138.478 0.228516Z"
              fill="#9CA2A6"
            />
            <path
              d="M114.989 0.298828C113.934 1.2834 112.95 2.12732 112.036 3.04157C114.286 5.36235 116.537 7.68313 118.717 10.0039C116.537 12.3247 114.286 14.6455 112.036 16.9663C112.95 17.8102 113.934 18.7244 115.06 19.7793C118.154 16.5443 121.389 13.2389 124.343 10.1446C121.248 6.83921 118.084 3.46353 114.989 0.298828Z"
              fill="#9CA2A6"
            />
            <path
              d="M126.734 0.298828C125.679 1.21308 124.694 2.12732 123.78 2.90092C126.101 5.29202 128.281 7.54248 130.602 9.93359C128.351 12.2544 126.101 14.5751 123.851 16.9663C124.765 17.8102 125.749 18.6541 126.804 19.6387C129.899 16.4036 133.063 13.0983 136.298 9.7226C133.134 6.62823 129.899 3.3932 126.734 0.298828Z"
              fill="#9CA2A6"
            />
          </svg>