<svg width="83" height="64" viewBox="0 0 83 64" fill="none" xmlns="http://www.w3.org/2000/svg">
<path d="M13.8731 48.0745C18.6352 53.2081 25.4616 56.4286 33.0313 56.4286H0V48.1708H13.763L13.8731 48.0745Z" fill="#0A0320"/>
<path d="M52.0932 48.1707H68.8153V41.2891L82.5783 52.2996L68.8153 63.31V56.4285H33.0314C25.4617 56.4285 18.6352 53.2079 13.8732 48.0743C10.6802 44.6336 8.4093 40.367 7.43212 35.605L2.75269 34.4076V26.1498L7.41836 24.9662C8.10651 21.6906 9.40024 18.6489 11.1757 15.9376L8.69832 11.7812L14.5339 5.94563L18.6903 8.42298C21.4016 6.64755 24.4432 5.35382 27.7188 4.66567L28.9025 0H37.1603L38.3439 4.66567C41.6195 5.35382 44.6612 6.64755 47.3725 8.42298L51.5289 5.94563L57.3644 11.7812L54.8871 15.9376C56.6625 18.6489 57.9563 21.6906 58.6444 24.9662L63.3101 26.1498V34.4076L58.6306 35.6188C57.6397 40.4083 55.3275 44.7299 52.0932 48.1707Z" fill="#0A0320"/>
<path d="M33.0314 12.387C42.9132 12.387 50.9233 20.3971 50.9233 30.2789C50.9233 40.1608 42.9132 48.1709 33.0314 48.1709C23.1495 48.1709 15.1394 40.1608 15.1394 30.2789C15.1394 20.3971 23.1495 12.387 33.0314 12.387Z" fill="white"/>
<path d="M34.9719 32.2193C34.4764 32.7286 33.7883 33.0313 33.0313 33.0313C31.5174 33.0313 30.2787 31.7927 30.2787 30.2787C30.2787 28.7648 31.5174 27.5261 33.0313 27.5261C34.5452 27.5261 35.7839 28.7648 35.7839 30.2787C35.7839 31.0357 35.4811 31.7239 34.9719 32.2193Z" fill="#090220"/>
<path d="M21.0026 36.9702C21.4994 37.8606 22.0954 38.696 22.7739 39.4544L24.8246 37.6184C24.2809 37.0114 23.8033 36.3426 23.407 35.6296L21.0026 36.9702Z" fill="black"/>
<path d="M22.043 30.9766L19.2959 31.1458C19.3592 32.1657 19.5354 33.1773 19.823 34.1545L22.4641 33.381C22.2357 32.6006 22.0939 31.7913 22.043 30.9766Z" fill="black"/>
<path d="M22.8069 26.1816L20.2511 25.1604C19.8726 26.1073 19.6001 27.0969 19.4391 28.1016L22.1587 28.5337C22.2853 27.7313 22.5041 26.94 22.8069 26.1816Z" fill="black"/>
<path d="M37.1603 30.2787C37.1603 28.4867 36.0056 26.9728 34.4077 26.403V16.5156H31.6551V26.403C30.0572 26.9728 28.9025 28.4867 28.9025 30.2787C28.9025 32.5551 30.755 34.4076 33.0314 34.4076C33.6672 34.4076 34.2618 34.2521 34.7999 33.9933L38.9399 38.1332L40.8859 36.1871L36.746 32.0472C37.0048 31.5091 37.1603 30.9145 37.1603 30.2787ZM33.0314 31.655C32.273 31.655 31.6551 31.037 31.6551 30.2787C31.6551 29.5203 32.273 28.9024 33.0314 28.9024C33.7897 28.9024 34.4077 29.5203 34.4077 30.2787C34.4077 31.037 33.7897 31.655 33.0314 31.655Z" fill="#C90B12"/>
</svg>
