 <svg
            width="80"
            height="45"
            viewBox="0 0 80 45"
            fill="none"
            xmlns="http://www.w3.org/2000/svg"
          >
            <path
              d="M26.269 40.2957L26.2106 39.0393H21.1558L21.0974 40.2957C21.1266 40.2957 21.1558 40.3249 21.1851 40.3249C21.3312 40.3249 21.4188 40.1204 21.5065 39.9743C21.711 39.6237 21.9447 39.536 22.3246 39.536H22.9674V44.9121C23.2011 44.8829 23.4349 44.8537 23.6686 44.8537C23.8439 44.8537 24.1361 44.8829 24.3406 44.9121V39.536H24.9834C25.4217 39.536 25.6262 39.6237 25.8308 40.0035C25.9184 40.1496 26.0061 40.3249 26.1522 40.3249C26.2106 40.3249 26.2398 40.3249 26.269 40.2957Z"
              fill="#9CA2A6"
            />
            <path
              d="M30.5348 42.4579C30.5348 43.2176 30.3595 44.5032 29.3369 44.5032C28.1974 44.5032 28.0221 43.3637 28.0221 42.4871C28.0221 41.669 28.1974 40.4419 29.2492 40.4419C30.3011 40.4419 30.5348 41.6398 30.5348 42.4579ZM31.9081 42.5163C31.9081 40.9386 30.8854 39.9744 29.3369 39.9744C27.9052 39.9744 26.6488 40.8801 26.6488 42.3995C26.6488 44.0065 27.6714 44.9999 29.2492 44.9999C30.7393 44.9999 31.9081 44.0649 31.9081 42.5163Z"
              fill="#9CA2A6"
            />
            <path
              d="M36.0864 43.4805C36.0864 44.1525 35.765 44.4447 35.093 44.4447C34.7132 44.4447 34.5671 44.4155 34.5671 44.1233V42.604H34.7424C34.9761 42.604 35.2683 42.6332 35.3852 42.6332C35.8234 42.7209 36.0864 43.013 36.0864 43.4805ZM35.8234 41.2307C35.8234 41.932 35.4728 42.1365 34.8008 42.1365C34.7132 42.1365 34.6547 42.1365 34.5671 42.1365V40.6756C34.5671 40.5295 34.6255 40.5295 34.83 40.5295C35.2975 40.5003 35.8234 40.6172 35.8234 41.2307ZM37.4597 43.5682C37.4597 42.7209 36.6415 42.2534 35.8819 42.1949C36.4662 42.1365 37.0506 41.7567 37.0506 41.0846C37.0506 40.5295 36.5539 40.2373 36.028 40.1497C35.6189 40.062 35.2975 40.062 34.8008 40.062H32.7263C32.7263 40.2373 32.9601 40.325 33.0477 40.4418C33.2522 40.6464 33.2522 40.9386 33.2522 41.2307V44.883H35.2683C35.9403 44.883 36.3494 44.8538 36.7 44.6493C37.1383 44.4739 37.4597 44.1233 37.4597 43.5682Z"
              fill="#9CA2A6"
            />
            <path
              d="M41.0242 43.0131H39.5048L40.2937 41.1432L41.0242 43.0131ZM43.1279 44.9123L41.4332 40.6757C41.2871 40.2958 41.1995 40.0913 40.8197 40.0913H39.4172C39.4172 40.3543 39.8847 40.2958 39.8847 40.6757C39.8847 40.8218 39.797 41.0555 39.7386 41.2016L38.1316 44.9123H38.716L39.3003 43.539H41.2287L41.7546 44.9123C41.9884 44.8539 42.2221 44.8539 42.4267 44.8539C42.6604 44.8539 42.8942 44.8539 43.1279 44.9123Z"
              fill="#9CA2A6"
            />
            <path
              d="M48.0365 41.4352L47.9781 40.3541C47.5983 40.1204 47.1015 40.0327 46.6048 40.0327C45.1732 40.0327 43.8583 40.9969 43.8583 42.5163C43.8583 44.1233 45.0563 44.9998 46.5756 44.9998C47.0139 44.9998 47.6859 44.8829 47.9781 44.5907V43.8895C47.6567 44.2109 47.3061 44.4739 46.7801 44.4739C45.6406 44.4739 45.2024 43.422 45.2024 42.4578C45.2024 41.5521 45.6406 40.5002 46.6633 40.5002C46.9262 40.5002 47.1308 40.5586 47.3061 40.6755C47.4522 40.7924 47.5398 40.9385 47.6275 41.2307C47.6859 41.3768 47.7736 41.4644 47.8904 41.4644C48.0073 41.4644 48.0073 41.4352 48.0365 41.4352Z"
              fill="#9CA2A6"
            />
            <path
              d="M53.3542 41.4352L53.2958 40.3541C52.916 40.1204 52.4192 40.0327 51.9225 40.0327C50.4908 40.0327 49.176 40.9969 49.176 42.5163C49.176 44.1233 50.374 44.9998 51.8933 44.9998C52.3316 44.9998 53.0036 44.8829 53.2958 44.5907V43.8895C52.9744 44.2109 52.6238 44.4739 52.0978 44.4739C50.9583 44.4739 50.5201 43.422 50.5201 42.4578C50.5201 41.5521 50.9583 40.5002 51.981 40.5002C52.2439 40.5002 52.4484 40.5586 52.6238 40.6755C52.7698 40.7924 52.8575 40.9385 52.9452 41.2307C53.0036 41.3768 53.0912 41.4644 53.2081 41.4644C53.2958 41.4644 53.325 41.4352 53.3542 41.4352Z"
              fill="#9CA2A6"
            />
            <path
              d="M58.3797 42.4579C58.3797 43.2176 58.2044 44.5032 57.1818 44.5032C56.0422 44.5032 55.8669 43.3637 55.8669 42.4871C55.8669 41.669 56.0423 40.4419 57.0941 40.4419C58.1752 40.4419 58.3797 41.6398 58.3797 42.4579ZM59.7529 42.5163C59.7529 40.9386 58.7303 39.9744 57.1818 39.9744C55.7501 39.9744 54.4937 40.8801 54.4937 42.3995C54.4937 44.0065 55.5163 44.9999 57.0941 44.9999C58.5842 44.9999 59.7529 44.0649 59.7529 42.5163Z"
              fill="#9CA2A6"
            />
            <path
              d="M4.4723 34.2476C4.4723 35.0657 4.06325 35.4748 3.36201 35.4748C2.92374 35.4748 2.74843 35.4455 2.74843 35.0657V33.1081H2.95296C3.39123 33.1081 3.94638 33.1665 4.26777 33.5464C4.38465 33.7509 4.4723 33.9846 4.4723 34.2476ZM4.12168 31.5595C4.12168 32.3484 3.74185 32.6114 2.98218 32.6114C2.89452 32.6114 2.80686 32.6114 2.71921 32.5822V30.7122C2.71921 30.5661 2.77765 30.5077 3.04061 30.5077C3.68341 30.5369 4.12168 30.8875 4.12168 31.5595ZM5.9332 34.3353C5.9332 33.3126 4.96901 32.7867 4.12168 32.699C4.7937 32.6406 5.46572 32.1147 5.46572 31.3258C5.46572 30.6246 4.88136 30.2739 4.29699 30.1863C3.8295 30.0986 3.47888 30.0986 2.89452 30.0986H0.761597C0.761597 30.3032 1.05378 30.42 1.17065 30.5369C1.37518 30.7706 1.37518 31.1213 1.37518 31.5011V35.9715H3.44966C4.20933 35.9715 4.67683 35.913 5.1151 35.7085C5.55337 35.4455 5.9332 35.0073 5.9332 34.3353Z"
              fill="#9CA2A6"
            />
            <path
              d="M9.81917 32.4654C9.81917 33.0205 9.58543 33.488 8.97185 33.488C8.76732 33.488 8.53357 33.488 8.53357 33.2543V31.618C8.62123 31.5888 8.76731 31.5888 9.00106 31.5888C9.2348 31.5888 9.43933 31.6473 9.58542 31.7934C9.73151 31.9394 9.81917 32.1732 9.81917 32.4654ZM12.478 35.9131C12.478 35.8839 12.4488 35.8839 12.4196 35.8547C12.3611 35.8547 12.3319 35.8255 12.2735 35.8255C12.0105 35.767 11.7184 35.5625 11.4262 35.2411C11.1632 34.9781 10.8126 34.5399 10.4035 34.0724L9.96526 33.5757C10.462 33.4004 11.1048 32.9913 11.1048 32.3193C11.1048 32.0271 10.9879 31.7641 10.8126 31.5888C10.4035 31.1798 9.73152 31.1213 9.11794 31.1213H6.6636C6.6636 31.2966 6.83892 31.3259 6.98501 31.472C7.10188 31.5888 7.18954 31.7934 7.18954 32.2316V35.9131C7.39406 35.8547 7.65702 35.8547 7.86155 35.8547C8.03686 35.8547 8.27061 35.8547 8.50435 35.9131V33.8678C8.62123 33.8678 8.73809 33.8971 8.85497 34.0432C9.26402 34.4522 9.73151 35.3872 10.3451 35.7378C10.6957 35.9423 11.3093 35.9716 11.5723 35.9716C11.806 35.9716 12.2443 35.9423 12.4196 35.9423C12.478 35.9423 12.478 35.9423 12.478 35.9131Z"
              fill="#9CA2A6"
            />
            <path
              d="M14.6109 35.9714V31.2965C14.6109 31.2088 14.5817 31.1504 14.4649 31.1504H12.7702C12.7702 31.3257 12.9455 31.3257 13.0916 31.501C13.2085 31.6471 13.3253 31.8516 13.3253 32.2899V35.9422C13.5007 35.9129 13.7344 35.8837 13.9681 35.8837C14.1727 35.9129 14.4356 35.9129 14.6109 35.9714Z"
              fill="#9CA2A6"
            />
            <path
              d="M20.1041 32.2607L20.0749 31.1504H15.809L15.7798 32.2607C15.809 32.2607 15.809 32.2607 15.8382 32.2607C15.9259 32.2607 16.0135 32.173 16.072 32.0562C16.2473 31.7055 16.3641 31.6179 16.8024 31.6179H17.2991V35.9422C17.5037 35.9129 17.7374 35.8837 17.9419 35.8837C18.088 35.8837 18.4094 35.9129 18.5847 35.9422V31.6179H19.0814C19.5489 31.6179 19.6658 31.7348 19.8411 32.0854C19.8995 32.2022 19.958 32.2607 20.0456 32.2607C20.0749 32.2607 20.1041 32.2607 20.1041 32.2607Z"
              fill="#9CA2A6"
            />
            <path
              d="M22.6167 35.9714V31.2965C22.6167 31.2088 22.5875 31.1504 22.4706 31.1504H20.7759C20.7759 31.3257 20.9513 31.3257 21.0973 31.501C21.2142 31.6471 21.3311 31.8516 21.3311 32.2899V35.9422C21.5064 35.9129 21.7401 35.8837 21.9739 35.8837C22.1784 35.9129 22.4414 35.9129 22.6167 35.9714Z"
              fill="#9CA2A6"
            />
            <path
              d="M27.35 34.6274C27.35 32.9912 25.1878 33.1373 25.1878 32.0855C25.1878 31.6764 25.5969 31.5011 25.9183 31.5011C26.1228 31.5011 26.2981 31.5303 26.415 31.618C26.6195 31.7348 26.7364 31.9101 26.824 32.0855C26.9409 32.3484 26.9994 32.4361 27.1747 32.4361C27.2039 32.4361 27.2331 32.4361 27.2623 32.4069L27.1747 31.3258C26.7948 31.1505 26.3858 31.092 25.9183 31.092C25.48 31.092 25.071 31.1797 24.7496 31.3258C24.3113 31.5595 23.9899 31.9686 23.9899 32.4069C23.9899 34.0431 26.1228 33.8385 26.1228 34.9488C26.1228 35.3579 25.743 35.5624 25.3631 35.5624C24.6911 35.5624 24.2528 35.1241 23.9022 34.5982V35.6793C24.3989 35.9423 24.8664 36.0299 25.4508 36.0299C26.5026 36.0591 27.35 35.5332 27.35 34.6274Z"
              fill="#9CA2A6"
            />
            <path
              d="M33.1937 35.9715V31.1797H31.9081V33.1373H29.9797V31.3258C29.9797 31.2673 29.9505 31.1797 29.8336 31.1797H28.139C28.139 31.355 28.3435 31.3842 28.4896 31.5887C28.6065 31.7348 28.6649 31.9394 28.6649 32.3484V36.0007C28.8694 35.9715 29.1032 35.9422 29.3369 35.9422C29.5415 35.9422 29.746 35.9422 29.9797 36.0007V33.6632H31.9081V36.0007C32.1127 35.9715 32.3464 35.9422 32.5801 35.9422C32.7554 35.913 32.9892 35.913 33.1937 35.9715Z"
              fill="#9CA2A6"
            />
            <path
              d="M40.5568 33.6632H38.6869L39.6803 31.2674L40.5568 33.6632ZM42.8358 35.9715L40.8782 30.7999C40.7029 30.3324 40.586 30.0986 40.1478 30.0986H38.7161C38.7161 30.42 39.2128 30.3032 39.2128 30.7999C39.2128 30.9752 39.0959 31.2674 39.0375 31.4427L37.1383 35.9423H37.8103L38.5116 34.2184H40.7906L41.4042 35.9423C41.6379 35.8838 41.8424 35.8838 42.1054 35.8838C42.3684 35.8838 42.5729 35.913 42.8358 35.9715Z"
              fill="#9CA2A6"
            />
            <path
              d="M49.8483 35.9714L49.2055 32.4944C49.1471 32.2022 49.0886 31.8516 49.0886 31.5594C49.0886 31.4134 49.1178 31.2673 49.1763 31.1504H48.2413C47.9491 31.1504 47.8615 31.2673 47.7446 31.5302L46.6635 33.8677L45.524 31.3549C45.4656 31.1796 45.4071 31.1504 45.2318 31.1504H43.7709C43.7709 31.2965 43.8878 31.3549 44.0631 31.4718C44.18 31.5594 44.2968 31.7055 44.2968 31.9977C44.2968 32.0854 44.2676 32.2607 44.2384 32.3483L43.4203 35.9714H44.0047L44.7059 32.5821L46.196 36.059L47.8322 32.5236L48.5042 35.9714C48.6796 35.9422 48.9425 35.9129 49.1763 35.9129C49.41 35.9129 49.6438 35.9129 49.8483 35.9714Z"
              fill="#9CA2A6"
            />
            <path
              d="M54.6106 34.9195C54.5813 34.9195 54.5521 34.8903 54.5229 34.8903C54.2307 34.8903 54.406 35.4455 53.5295 35.4455H52.4484V33.6339H54.1431V33.108H52.4484V31.6471H53.7924C53.997 31.6471 54.2015 31.7055 54.3476 31.7932L54.3184 31.1504H50.6077C50.6077 31.3257 50.783 31.3549 50.9291 31.501C51.0459 31.6471 51.1628 31.8224 51.1628 32.2607V35.5331C51.1628 35.8837 51.192 35.9422 51.5719 35.9422H54.2891C54.4937 35.9422 54.5229 35.7961 54.5521 35.5331L54.6106 34.9195Z"
              fill="#9CA2A6"
            />
            <path
              d="M58.4382 32.4654C58.4382 33.0205 58.2045 33.488 57.5909 33.488C57.3863 33.488 57.1526 33.488 57.1526 33.2543V31.618C57.2403 31.5888 57.3864 31.5888 57.6201 31.5888C57.8538 31.5888 58.0584 31.6473 58.2045 31.7934C58.3506 31.9394 58.4382 32.1732 58.4382 32.4654ZM61.1263 35.9131C61.1263 35.8839 61.0971 35.8839 61.0678 35.8547C61.0094 35.8547 60.9802 35.8255 60.9217 35.8255C60.6588 35.767 60.3666 35.5625 60.0744 35.2411C59.8114 34.9781 59.4608 34.5399 59.0518 34.0724L58.6135 33.5757C59.1102 33.4004 59.753 32.9913 59.753 32.3193C59.753 32.0271 59.6361 31.7641 59.4608 31.5888C59.0518 31.1798 58.3798 31.1213 57.7662 31.1213H55.3119C55.3119 31.2966 55.4872 31.3259 55.6333 31.472C55.7501 31.5888 55.8378 31.7934 55.8378 32.2316V35.9131C56.0423 35.8547 56.3053 35.8547 56.5098 35.8547C56.6851 35.8547 56.9189 35.8547 57.1526 35.9131V33.8678C57.2695 33.8678 57.3863 33.8971 57.5032 34.0432C57.9123 34.4522 58.3798 35.3872 58.9934 35.7378C59.344 35.9423 59.9575 35.9716 60.2205 35.9716C60.4542 35.9716 60.8925 35.9423 61.0678 35.9423C61.0971 35.9423 61.1263 35.9423 61.1263 35.9131Z"
              fill="#9CA2A6"
            />
            <path
              d="M63.23 35.9714V31.2965C63.23 31.2088 63.1715 31.1504 63.0839 31.1504H61.3892C61.3892 31.3257 61.5645 31.3257 61.7106 31.501C61.8275 31.6471 61.9444 31.8516 61.9444 32.2899V35.9422C62.1197 35.9129 62.3534 35.8837 62.5872 35.8837C62.7917 35.9129 63.0547 35.9129 63.23 35.9714Z"
              fill="#9CA2A6"
            />
            <path
              d="M68.7522 32.4945L68.6938 31.4134C68.3139 31.1797 67.8172 31.092 67.3205 31.092C65.8889 31.092 64.574 32.0562 64.574 33.5756C64.574 35.1826 65.772 36.0591 67.2913 36.0591C67.7296 36.0591 68.4016 35.9422 68.6938 35.6501V34.9488C68.3724 35.2702 68.0218 35.5332 67.4958 35.5332C66.3563 35.5332 65.9181 34.4813 65.9181 33.5171C65.9181 32.6114 66.3563 31.5595 67.379 31.5595C67.6419 31.5595 67.8465 31.618 68.0218 31.7348C68.1679 31.8517 68.2555 31.9978 68.3432 32.29C68.4016 32.4361 68.4892 32.5237 68.6061 32.5237C68.6938 32.5237 68.723 32.4945 68.7522 32.4945Z"
              fill="#9CA2A6"
            />
            <path
              d="M72.4337 34.0722H70.9144L71.7033 32.2022L72.4337 34.0722ZM74.5374 35.9714L72.8428 31.7348C72.6967 31.3549 72.609 31.1504 72.2292 31.1504H70.8267C70.8267 31.4134 71.2942 31.3549 71.2942 31.7348C71.2942 31.8808 71.2065 32.1146 71.1481 32.2607L69.5411 35.9714H70.1255L70.7098 34.5981H72.6382L73.1642 35.9714C73.3979 35.9129 73.6317 35.9129 73.8362 35.9129C74.0699 35.9129 74.3037 35.9129 74.5374 35.9714Z"
              fill="#9CA2A6"
            />
            <path
              d="M79.7675 35.9715V31.1797H79.1539L79.2123 34.3937L76.6996 31.355C76.6119 31.2381 76.5243 31.2089 76.3782 31.2089H75.0341C75.0341 31.3842 75.2679 31.4719 75.3555 31.5887C75.5601 31.7933 75.56 32.027 75.56 32.3776V36.0299H76.1444L76.086 32.6406L78.2773 35.3579C78.4234 35.5332 78.6279 35.7377 78.774 35.8254C79.0078 35.9422 79.2708 36.0591 79.6214 36.0591H79.7675"
              fill="#9CA2A6"
            />
            <path
              d="M40.4658 5.29584L39.6466 24.3725L36.0185 15.0097L37.8911 24.4896L32.0101 16.619L36.1648 24.7236L21.6232 14.4246L34.4385 25.104L26.2461 22.0611L32.8293 25.8355C26.7142 25.8355 19.3995 21.0078 17.1466 10.972C17.1466 10.972 30.2253 11.1183 34.5848 16.9408C33.7656 8.74837 39.4125 1.05332 40.4658 0C41.5192 1.05332 47.1661 8.77763 46.3469 16.9408C50.7064 11.1183 63.7851 10.972 63.7851 10.972C61.5322 21.0078 54.2175 25.8355 48.1024 25.8355L54.6856 22.0611L46.4932 25.104L59.3085 14.4246L44.7669 24.6944L48.9216 16.5897L43.0406 24.4603L44.9132 14.9805L41.2851 24.3433L40.4658 5.29584Z"
              fill="#9CA2A6"
            />
          </svg>