<svg width="64" height="64" viewBox="0 0 64 64" fill="none" xmlns="http://www.w3.org/2000/svg">
<path d="M31.6552 11.118C34.7042 11.118 37.1759 8.64635 37.1759 5.59735C37.1759 2.54836 34.7042 0.0766602 31.6552 0.0766602C28.6062 0.0766602 26.1345 2.54836 26.1345 5.59735C26.1345 8.64635 28.6062 11.118 31.6552 11.118Z" fill="#2A1571"/>
<path d="M33.7946 12.4449C33.7685 12.4442 33.7425 12.4435 33.7164 12.4431H29.5943C25.3672 12.5226 22.0049 16.0139 22.0844 20.241C22.0848 20.2671 22.0855 20.2932 22.0862 20.3192V21.4969C22.0862 22.0859 22.307 22.7483 22.9695 22.7483H40.3411C41.0036 22.7483 41.2244 22.0859 41.2244 21.4969V20.3192C41.3471 16.0932 38.0206 12.5677 33.7946 12.4449Z" fill="#2A1571"/>
<path d="M7.73244 36.7337C8.34222 36.7337 8.83661 36.2393 8.83661 35.6295C8.82125 28.7012 11.9645 22.1437 17.3752 17.8162C17.8375 17.4843 17.9433 16.8404 17.6113 16.3781C17.5841 16.3402 17.5544 16.3043 17.5224 16.2705C17.1345 15.8062 16.4452 15.7406 15.9767 16.1232C10.0666 20.8734 6.6287 28.047 6.62842 35.6295C6.62842 36.2395 7.12267 36.7337 7.73244 36.7337Z" fill="#C90B12"/>
<path d="M38.9425 57.2703C34.2323 58.8154 29.1518 58.8154 24.4416 57.2703C23.8614 57.0825 23.239 57.4005 23.051 57.9805C23.0482 57.9891 23.0455 57.9977 23.043 58.0063C22.8927 58.5924 23.2109 59.197 23.779 59.4049C26.3227 60.2318 28.9804 60.6541 31.6551 60.6563C34.3842 60.659 37.0951 60.2114 39.6785 59.3314C40.2202 59.0516 40.4327 58.3854 40.1529 57.8437C39.9246 57.4017 39.429 57.167 38.9425 57.2703Z" fill="#C90B12"/>
<path d="M44.8171 16.9972C44.8218 17.0005 44.8265 17.0037 44.8313 17.0069C50.8671 21.2907 54.4594 28.2284 54.4741 35.63C54.4741 36.2397 54.9685 36.7341 55.5783 36.7341C56.188 36.7341 56.6824 36.2397 56.6824 35.63C56.6621 27.4971 52.7141 19.8752 46.0827 15.1668C45.5679 14.8558 44.9015 14.9828 44.537 15.4612C44.19 15.9628 44.3155 16.6505 44.8171 16.9972Z" fill="#C90B12"/>
<path d="M9.57245 51.6027C12.6214 51.6027 15.0931 49.131 15.0931 46.082C15.0931 43.033 12.6214 40.5613 9.57245 40.5613C6.52346 40.5613 4.05176 43.033 4.05176 46.082C4.05176 49.131 6.52346 51.6027 9.57245 51.6027Z" fill="#2A1571"/>
<path d="M11.7118 52.9293C11.6858 52.9286 11.6597 52.9279 11.6336 52.9275H7.51157C3.2844 53.007 -0.0779748 56.4982 0.00162892 60.7254C0.00205159 60.7515 0.00275605 60.7775 0.0034605 60.8036V61.9813C0.0034605 62.5702 0.224237 63.2327 0.886709 63.2327H18.2583C18.9208 63.2327 19.1416 62.5702 19.1416 61.9813V60.8036C19.2645 56.5774 15.938 53.052 11.7118 52.9293Z" fill="#2A1571"/>
<path d="M53.7377 51.6027C56.7867 51.6027 59.2584 49.131 59.2584 46.082C59.2584 43.033 56.7867 40.5613 53.7377 40.5613C50.6887 40.5613 48.217 43.033 48.217 46.082C48.217 49.131 50.6887 51.6027 53.7377 51.6027Z" fill="#2A1571"/>
<path d="M55.8769 52.9293C55.8508 52.9286 55.8247 52.9279 55.7987 52.9275H51.6766C47.4494 53.007 44.0872 56.4982 44.1667 60.7254C44.1671 60.7515 44.1678 60.7775 44.1685 60.8036V61.9813C44.1685 62.5702 44.3893 63.2327 45.0517 63.2327H62.4235C63.086 63.2327 63.3068 62.5702 63.3068 61.9813V60.8036C63.4295 56.5774 60.103 53.052 55.8769 52.9293Z" fill="#2A1571"/>
</svg>
