<svg width="52" height="62" viewBox="0 0 52 62" fill="none" xmlns="http://www.w3.org/2000/svg">
<path d="M22.8265 20.1587C22.5393 20.1587 22.2482 20.1748 21.9549 20.2077C18.5228 20.5899 15.7319 23.3541 15.3191 26.7819C14.9975 29.4306 16.0468 31.9972 18.1263 33.6493C18.3696 33.8438 18.5129 34.1382 18.5129 34.4493V36.4337C18.5129 37.7453 19.5784 38.813 20.8916 38.813H24.7659C26.0786 38.813 27.1441 37.7453 27.1441 36.4337V34.4493C27.1441 34.1382 27.288 33.8438 27.5313 33.6505C29.3506 32.2017 30.396 30.043 30.396 27.7274C30.3962 23.5547 27.0008 20.1587 22.8265 20.1587Z" fill="#B02E35"/>
<path d="M51.1621 36.4552C49.9172 29.486 46.8784 12.4277 44.8935 9.86076C41.3659 4.13961 34.2434 0.220947 26.0172 0.220947C14.2838 0.220947 1.13546 2.37695 0.17777 19.6521C-0.759885 36.5718 3.96042 40.1912 7.31251 43.3299C8.6252 44.5587 9.37132 46.2753 9.37132 48.0742V59.5364C9.37132 60.3952 10.0658 61.0897 10.924 61.0897H29.8259C30.6837 61.0897 31.378 60.3952 31.378 59.5364V57.8225C31.378 56.8598 31.7613 55.9354 32.4457 55.256C33.1301 54.5743 34.0557 54.1972 35.0194 54.2005C37.6949 54.2144 40.9269 54.2205 41.2603 54.1773C46.4956 53.5073 45.0412 47.707 46.2623 39.404H49.1571C49.8693 39.404 50.5353 39.0501 50.9387 38.4607C51.3398 37.8706 51.2876 37.1573 51.1621 36.4552ZM21.8073 9.49228C21.8073 9.15483 22.0808 8.88143 22.4181 8.88143H23.2395C23.577 8.88143 23.8504 9.15495 23.8504 9.49228V12.8675C23.8504 13.2049 23.5769 13.4783 23.2395 13.4783H22.4181C22.0807 13.4783 21.8073 13.2048 21.8073 12.8675V9.49228ZM12.2951 12.8836C12.4097 12.7689 12.5651 12.7046 12.7271 12.7046C12.8892 12.7046 13.0447 12.7691 13.1592 12.8837L14.9454 14.6711C15.1838 14.9096 15.1838 15.2964 14.9453 15.5349L14.3649 16.1155C14.2503 16.2301 14.0948 16.2944 13.9329 16.2944C13.7707 16.2944 13.6153 16.23 13.5007 16.1153L11.7145 14.3278C11.4761 14.0892 11.4763 13.7025 11.7147 13.464L12.2951 12.8836ZM29.1875 34.9257V36.4334C29.1875 38.3817 27.9142 40.0204 26.1587 40.6093V42.3019C26.1587 43.2474 25.3943 44.0147 24.4471 44.0147H21.2107C20.2629 44.0147 19.4991 43.2474 19.4991 42.3019V40.6093C17.7431 40.0204 16.4703 38.3815 16.4703 36.4334V34.9257C14.0883 32.8258 12.9049 29.7265 13.29 26.5361C13.8166 22.1791 17.3642 18.6623 21.7295 18.1765C27.5331 17.534 32.4397 22.0664 32.4397 27.7272C32.4397 30.5016 31.2603 33.0975 29.1875 34.9257ZM32.1576 15.9135C32.0431 16.0282 31.8877 16.0926 31.7256 16.0926C31.5635 16.0926 31.4081 16.0283 31.2935 15.9137L30.713 15.3331C30.4744 15.0946 30.4744 14.7081 30.7129 14.4695L32.4986 12.6823C32.6131 12.5676 32.7686 12.5032 32.9307 12.5032C33.0928 12.5032 33.2481 12.5676 33.3627 12.6821L33.9433 13.2628C34.1817 13.5013 34.1818 13.8879 33.9434 14.1264L32.1576 15.9135Z" fill="#0A0320"/>
</svg>
