<svg width="163" height="80" viewBox="0 0 163 80" fill="none" xmlns="http://www.w3.org/2000/svg">
<path d="M6.86499 67.3685C4.62243 67.3685 2.4714 67.3685 0.320366 67.3685C0.228833 67.6889 0.0915332 67.9635 0 68.1923C0 68.2839 0 68.4212 0 68.5127C0.778032 68.5127 1.60183 68.5127 2.4714 68.5127C1.83066 72.3113 1.18993 75.9727 0.549199 79.634C1.96796 80.0459 2.1968 79.9086 2.42563 78.6271C2.97483 75.5608 3.52403 72.4944 4.02746 69.428C4.16476 68.6958 4.39359 68.3296 5.17163 68.4669C5.67506 68.5585 6.17849 68.4669 6.68192 68.4669C6.72769 68.055 6.77346 67.7347 6.86499 67.3685Z" fill="#9CA2A6"/>
<path d="M162.197 24.9429C162.38 24.7598 162.517 24.5767 162.792 24.2564C161.419 24.2564 160.275 24.3021 159.13 24.2564C158.261 24.2106 157.62 24.4852 156.979 25.1717C153.41 29.0161 149.794 32.8147 146.224 36.6133C146.041 36.8422 145.812 37.0252 145.492 37.3456C145.492 37.0252 145.492 36.9337 145.492 36.8422C146.041 33.7758 146.59 30.7094 147.14 27.6431C147.734 24.0733 148.467 20.5493 148.833 16.9337C149.382 11.2129 147.094 6.77352 142.151 3.79869C138.718 1.7392 134.874 0.823864 130.938 0.366198C124.989 -0.320301 118.993 6.54259e-05 113.089 0.869631C106.133 1.8765 99.3592 3.75293 92.7688 6.13279C91.3043 6.68199 89.8398 7.23119 88.3752 7.82615C89.6567 7.64309 90.8466 7.27695 92.0823 6.91082C98.81 4.94286 105.583 3.34103 112.54 2.56299C117.437 2.0138 122.334 1.83073 127.277 2.24263C130.16 2.47146 133.043 2.92913 135.744 3.98176C139.725 5.49206 142.609 8.10075 143.707 12.357C144.302 14.6911 144.394 17.0252 143.982 19.4051C143.57 22.0138 143.112 24.5767 142.654 27.1854C141.51 33.6843 140.366 40.2289 139.222 46.7278C138.856 48.6957 138.535 50.6637 138.169 52.6774C139.725 52.6774 141.19 52.6774 142.746 52.6774C143.615 47.8719 144.439 43.1122 145.309 38.3067C145.675 38.6271 145.858 38.9474 146.041 39.222C148.467 43.5241 150.892 47.7804 153.318 52.0367C153.455 52.3113 153.821 52.6316 154.096 52.6316C155.652 52.6774 157.254 52.6774 158.947 52.6774C158.673 52.2197 158.535 51.8994 158.307 51.579C155.606 47.1397 152.86 42.7003 150.16 38.2609C149.84 37.7575 149.84 37.4371 150.297 36.9795C154.279 32.9978 158.215 28.9703 162.197 24.9429Z" fill="#9CA2A6"/>
<path d="M67.3683 51.6248C69.4736 52.6774 71.6704 53.0893 74.0045 53.1809C78.6727 53.3639 82.7917 52.0367 85.858 48.4212C90.0228 43.4784 91.4873 37.6202 90.6178 31.3044C90.2059 28.3754 88.7413 25.904 85.858 24.6683C83.7528 23.753 81.556 23.6614 79.3592 24.1191C78.2608 24.3479 77.1624 24.6683 76.0182 24.9887C76.7963 20.4578 77.62 16.0184 78.4438 11.3044C76.7047 12.3113 75.1029 13.2266 73.5468 14.142C73.3638 14.2335 73.2722 14.5081 73.2265 14.7369C72.4027 19.2678 71.6246 23.7987 70.8008 28.2838C69.5194 35.698 68.1921 43.158 66.8649 50.5722C66.7734 51.1214 66.9107 51.396 67.3683 51.6248ZM71.8077 48.9703C72.6315 44.4852 73.3638 40.0459 74.1418 35.5607C74.5537 33.2724 74.9656 31.0298 75.3317 28.7415C75.469 27.9635 75.7894 27.5516 76.5216 27.277C78.3523 26.6362 80.2287 26.3617 82.1509 26.9108C84.1647 27.46 85.2173 28.9703 85.7665 30.8925C86.5445 33.7301 86.1784 36.5676 85.5377 39.4051C84.9427 42.0596 84.0731 44.5768 82.4255 46.7278C80.6406 49.0619 78.2608 50.206 75.286 50.2518C74.2791 50.0687 73.318 49.8857 72.3111 49.7484C71.8992 49.7026 71.7162 49.5195 71.8077 48.9703Z" fill="#9CA2A6"/>
<path d="M5.85795 52.6774C10.5261 52.6774 15.2401 52.6774 19.9083 52.6774C20.2287 52.6774 20.549 52.6774 20.8694 52.6774C21.0525 51.5333 21.2355 50.5264 21.4186 49.3822C16.9792 49.3822 12.6772 49.3822 8.28358 49.3822C8.28358 49.1076 8.23782 48.9246 8.28358 48.7415C9.01585 44.6683 9.74811 40.6408 10.4346 36.5676C10.5719 35.7438 10.8465 35.515 11.6245 35.5607C14.5994 35.6065 17.5742 35.6065 20.549 35.5607C20.8236 35.5607 21.3271 35.3777 21.3728 35.1946C21.6017 34.2793 21.739 33.3182 21.8763 32.2655C18.2607 32.2655 14.7824 32.2655 11.2584 32.2655C11.2584 31.9452 11.2584 31.7163 11.3042 31.4875C11.9907 27.8719 12.6772 24.2564 13.2721 20.595C13.4094 19.7712 13.7298 19.5882 14.5078 19.5882C17.8488 19.6339 21.144 19.5882 24.485 19.6339C25.1714 19.6339 25.5833 19.5424 25.6291 18.7186C25.6749 17.9864 25.8579 17.2541 25.9952 16.5218C25.8579 16.4761 25.8122 16.4303 25.7206 16.4303C21.0982 16.4303 16.4758 16.3388 11.8991 16.3845C10.0685 16.3845 8.97008 17.4829 8.64972 19.2678C8.42088 20.412 8.23782 21.5561 8.05475 22.7003C6.86482 29.2449 5.72065 35.698 4.57649 42.1969C4.11882 44.6683 3.66116 47.1397 3.24926 49.6568C2.92889 51.6706 3.79846 52.6774 5.85795 52.6774Z" fill="#9CA2A6"/>
<path d="M130.618 48.9703C130.389 50.1603 130.206 51.3502 129.977 52.6774C131.35 52.6774 132.632 52.6317 133.913 52.6774C134.508 52.6774 134.691 52.4486 134.783 51.9452C135.927 45.4005 137.071 38.8102 138.261 32.2655C139.085 27.7804 137.025 24.6683 132.54 23.9818C128.146 23.2953 123.844 23.8445 119.68 25.309C118.993 25.5378 118.718 25.9497 118.581 26.6362C117.208 34.4623 115.835 42.2884 114.462 50.1145C114.325 50.9383 114.188 51.8079 114.05 52.6774C115.652 52.6774 117.162 52.6774 118.673 52.6774C118.718 52.4028 118.81 52.174 118.856 51.9452C120.229 44.1191 121.602 36.293 122.975 28.4669C123.066 27.8719 123.341 27.6431 123.844 27.5058C125.767 26.8651 127.735 26.682 129.748 26.8193C132.586 27.0481 134.188 28.9703 133.684 31.7621C132.632 37.4829 131.625 43.2495 130.618 48.9703Z" fill="#9CA2A6"/>
<path d="M43.341 46.6361C43.9817 49.6109 45.5378 51.945 48.6499 52.7688C53.3639 54.0045 57.6659 53.0434 60.8696 49.2448C65.4463 43.8443 66.6362 37.3912 65.7209 30.5262C65.309 27.5057 63.6156 25.2173 60.5492 24.2105C58.627 23.5697 56.6591 23.5697 54.7369 23.9359C51.1213 24.6224 48.4668 26.7276 46.5904 29.794C44.119 33.7757 43.2037 38.215 42.9749 43.3409C43.0206 44.1189 43.0664 45.4004 43.341 46.6361ZM48.3295 37.2082C48.8787 35.0114 49.6568 32.9061 50.4806 30.8466C51.1213 29.3363 52.2655 28.1464 53.7758 27.3684C57.3913 25.4919 60.9154 27.3684 61.373 31.3958C61.4646 32.0365 61.4646 32.723 61.5103 33.318C61.2815 37.2082 60.7323 40.9153 59.2678 44.4851C58.3982 46.6361 57.1625 48.5125 54.9199 49.4736C53.6842 50.0228 52.357 50.1601 51.0298 49.794C48.9245 49.199 48.0549 47.5972 47.7346 45.6292C47.2769 42.7459 47.643 39.9542 48.3295 37.2082Z" fill="#9CA2A6"/>
<path d="M108.238 34.2333C105.171 34.5537 102.151 35.0571 99.2218 36.1098C94.7366 37.7574 91.716 40.6407 91.1211 45.5835C90.7549 48.6956 92.1737 51.2127 95.1028 52.3569C96.7504 52.9976 98.4437 53.1349 100.183 53.1807C103.478 53.2722 106.636 52.7688 109.702 51.5331C110.16 51.35 110.48 51.1212 110.526 50.5262C110.618 49.5194 110.846 48.5583 111.03 47.5514C111.945 42.334 112.86 37.1624 113.73 31.945C114.371 27.8718 112.448 24.8512 108.604 24.0274C104.439 23.1578 100.457 23.9359 96.6131 25.5835C96.43 25.675 96.2927 25.9954 96.2927 26.1784C96.43 26.9565 96.6131 27.7345 96.7961 28.5583C97.4369 28.2837 98.0776 28.0548 98.6726 27.826C101.052 27.0022 103.432 26.4988 105.949 26.9565C108.192 27.3226 109.382 28.6956 109.336 30.9381C109.336 31.7619 109.107 32.5857 109.062 33.3638C109.107 34.0045 108.879 34.1876 108.238 34.2333ZM107.46 42.9748C107.139 44.897 106.727 46.8191 106.407 48.7871C106.316 49.3821 106.041 49.7024 105.446 49.8855C103.203 50.6178 100.915 50.7093 98.6268 50.1601C96.3385 49.5651 95.2401 47.5972 95.6977 44.9885C96.2012 41.7848 97.9403 39.5423 100.961 38.3066C103.387 37.2997 105.904 36.9336 108.558 36.5674C108.192 38.7642 107.826 40.8695 107.46 42.9748Z" fill="#9CA2A6"/>
<path d="M42.151 28.0549C42.1052 28.1465 42.151 28.1007 42.151 28.0549V28.0549Z" fill="#9CA2A6"/>
<path d="M24.1648 46.3616C24.6683 49.1991 26.2243 51.579 29.0619 52.5859C32.357 53.7758 35.6065 53.3181 38.6728 51.579C38.8559 51.4875 39.039 51.2129 38.9932 51.0756C38.8101 50.206 38.6271 49.3364 38.3982 48.4669C37.5287 48.7872 36.7506 49.1991 35.9268 49.428C32.3113 50.4806 29.7026 48.9703 28.833 45.3547C28.2381 43.0206 28.4669 40.6408 28.8788 38.3067C29.3365 35.698 30.0229 33.1808 31.4417 30.8925C33.0893 28.2838 35.3319 26.7277 38.4898 27.0023C39.7255 27.0939 40.8696 27.6431 42.1511 28.055C42.4715 27.5515 42.7461 27.0023 43.0664 26.4989C43.7072 25.4005 43.7072 25.4005 42.563 24.8055C39.4509 23.2495 36.2014 23.341 33.0435 24.714C31.1671 25.492 29.611 26.7735 28.4211 28.4211C24.3937 33.73 23.0207 39.817 24.1648 46.3616Z" fill="#9CA2A6"/>
<path d="M128.65 69.016C128.33 67.8718 127.368 67.3684 126.316 67.3226C124.989 67.2769 123.707 67.5057 122.38 67.5972C121.876 67.643 121.693 67.9634 121.602 68.421C121.51 69.2448 121.327 70.0229 121.19 70.8467C120.687 73.6384 120.183 76.4759 119.68 79.3592C121.922 80.1373 124.073 80.3203 126.179 79.2219C128.33 78.1235 129.062 74.508 126.499 73.4096C126.407 73.3638 126.362 73.2723 126.27 73.2265C126.819 72.8146 127.368 72.4943 127.78 72.0824C128.696 71.2586 128.925 70.1602 128.65 69.016ZM126.407 75.3775C126.59 76.7048 126.041 77.8947 125.034 78.4439C123.936 79.0389 122.792 78.9016 121.465 78.6727C121.739 77.0709 121.968 75.5606 122.243 74.0503C122.288 73.913 122.517 73.73 122.7 73.73C123.341 73.73 124.028 73.73 124.668 73.8215C125.675 74.0046 126.27 74.5995 126.407 75.3775ZM127.094 70.1602C126.957 71.6247 125.995 72.5858 124.485 72.7231C123.844 72.7689 123.204 72.8146 122.426 72.8146C122.7 71.3043 122.883 70.0229 123.158 68.7872C123.204 68.6499 123.341 68.421 123.478 68.3753C124.439 68.1464 125.355 68.0091 126.27 68.4668C126.957 68.8329 127.185 69.4279 127.094 70.1602Z" fill="#9CA2A6"/>
<path d="M12.3112 69.9772C11.4874 69.9772 10.6637 70.1602 9.74832 70.2518C10.0229 68.7415 10.2518 67.2312 10.5264 65.7209C9.06182 65.4463 8.97029 65.4463 8.74145 66.7277C8.23802 69.5653 7.73459 72.357 7.23116 75.1946C6.95656 76.6591 6.72772 78.1694 6.45312 79.6797C7.04809 79.6797 7.55152 79.6797 8.05496 79.6797C8.51262 77.1168 8.92452 74.5996 9.33642 72.0824C9.42795 71.6248 9.56525 71.3044 10.0687 71.2129C10.4806 71.1213 10.8467 71.0298 11.2129 70.984C12.6316 70.8925 13.2266 71.5332 12.9977 72.952C12.7689 74.325 12.4943 75.6522 12.2655 77.0252C12.1282 77.8948 11.9909 78.7643 11.8536 79.6339C13.4096 79.9085 13.4096 79.9085 13.6385 78.5355C13.9588 76.6133 14.325 74.7369 14.6453 72.8147C15.0572 71.0298 14.1419 69.9772 12.3112 69.9772Z" fill="#9CA2A6"/>
<path d="M67.8719 68.2838C66.5905 70.801 65.309 73.2724 64.0275 75.7895C63.3868 77.071 62.7461 78.3525 62.0596 79.6797C63.4783 79.9085 63.4783 79.9085 64.0275 78.8101C64.3937 78.0779 64.7598 77.2998 65.1717 76.6133C65.309 76.3845 65.6294 76.1557 65.8582 76.1557C66.9108 76.1099 67.9635 76.1099 69.0619 76.1099C69.5653 76.1099 69.7026 76.293 69.7484 76.7506C69.8399 77.5287 69.9772 78.3067 70.0687 79.1305C70.1145 79.6339 70.3433 79.8628 70.8468 79.817C71.1671 79.7712 71.5332 79.817 71.9451 79.817C71.2586 75.6065 70.6179 71.5332 69.9772 67.46C68.6042 67.1396 68.4211 67.1854 67.8719 68.2838ZM65.9497 74.92C66.8651 73.0435 67.7346 71.2586 68.6042 69.5195C68.65 69.5195 68.7415 69.5195 68.7873 69.5195C69.0161 71.2586 69.2449 73.0435 69.4738 74.92C68.2838 74.92 67.1854 74.92 65.9497 74.92Z" fill="#9CA2A6"/>
<path d="M153.318 70.9383C152.357 72.0824 151.259 73.1351 150.252 74.2334C150.206 74.1877 150.114 74.1877 150.069 74.1419C150.572 71.3502 151.03 68.5584 151.533 65.7209C150.023 65.492 149.977 65.492 149.748 66.865C149.199 70.0229 148.65 73.1808 148.101 76.3387C147.918 77.4371 147.735 78.5813 147.552 79.6797C149.062 79.9085 149.108 79.8627 149.336 78.5813C149.519 77.4371 149.748 76.2929 149.931 75.1488C150.023 75.103 150.069 75.103 150.16 75.0573C150.847 76.2929 151.579 77.5286 152.265 78.7643C152.906 79.8627 153.318 80 154.6 79.5881C153.684 78.1236 152.815 76.6133 151.899 75.1488C151.579 74.6453 151.671 74.3707 152.037 74.0046C152.952 73.1351 153.867 72.2197 154.737 71.3044C155.149 70.8925 155.515 70.4806 155.927 70.0229C154.737 69.7483 154.005 70.1602 153.318 70.9383Z" fill="#9CA2A6"/>
<path d="M36.2471 67.1854C35.3775 67.1397 34.4622 67.3685 33.5468 67.46C32.8146 67.5516 32.54 68.0092 32.4027 68.6957C32.1738 70.1145 31.8992 71.5333 31.6704 72.9063C31.2585 75.1488 30.8924 77.3914 30.4805 79.6797C31.0754 79.6797 31.5789 79.6797 32.1281 79.6797C32.2654 78.8559 32.4027 78.0321 32.5857 77.2541C32.723 76.4303 32.9061 75.6065 33.0434 74.6911C33.7299 74.6911 34.3706 74.7369 34.9656 74.6911C37.1166 74.5996 38.7185 73.4097 39.2677 71.4875C40.0457 68.9703 38.9015 67.277 36.2471 67.1854ZM37.8031 71.0298C37.3455 73.0893 35.7436 74.0504 33.318 73.547C33.5926 71.8994 33.913 70.2518 34.1876 68.65C34.1876 68.5584 34.3249 68.3754 34.4164 68.3754C35.3775 68.1923 36.3844 68.0092 37.2539 68.6957C38.032 69.2907 37.9862 70.1603 37.8031 71.0298Z" fill="#9CA2A6"/>
<path d="M54.4622 69.9771C52.9977 69.6567 51.5789 69.9313 50.1602 70.2975C49.7025 70.4348 49.5194 70.6636 49.4279 71.1213C49.2906 72.0366 49.1075 72.9519 48.9702 73.8673C48.6499 75.7895 48.2837 77.7117 47.9634 79.6339C49.3821 79.9542 49.5652 79.8627 49.794 78.5812C50.2059 76.3387 50.5721 74.0961 50.984 71.8535C51.0297 71.5789 51.2586 71.167 51.4416 71.1213C52.0824 70.984 52.7689 70.8924 53.4096 70.9382C54.3707 71.0297 54.7826 71.6705 54.6453 72.6316C54.508 73.4096 54.4165 74.1876 54.2792 74.9657C54.0046 76.5217 53.73 78.0778 53.4554 79.6796C54.0503 79.6796 54.5538 79.6796 55.103 79.6796C55.5149 77.2082 55.9725 74.7826 56.3387 72.357C56.476 71.167 55.7437 70.2975 54.4622 69.9771Z" fill="#9CA2A6"/>
<path d="M144.714 69.9771C143.158 69.611 141.648 69.9314 140.183 70.389C140 70.4348 139.817 70.7094 139.771 70.8925C139.222 73.8215 138.719 76.7506 138.215 79.6339C139.634 80 139.863 79.8627 140.046 78.5355C140.046 78.4897 140.046 78.4897 140.046 78.444C140.458 76.2014 140.824 74.0046 141.236 71.762C141.281 71.4874 141.51 71.1213 141.693 71.0298C142.243 70.8925 142.838 70.8467 143.432 70.8467C144.531 70.9382 145.034 71.579 144.851 72.6774C144.714 73.4554 144.577 74.2334 144.439 75.0115C144.165 76.5218 143.936 78.0321 143.661 79.5881C144.256 79.5881 144.714 79.5881 145.263 79.5881C145.675 77.2083 146.087 74.8742 146.499 72.5401C146.773 71.3044 146.087 70.2975 144.714 69.9771Z" fill="#9CA2A6"/>
<path d="M111.121 69.9772C109.565 69.6111 108.055 69.9314 106.59 70.3433C106.407 70.3891 106.178 70.7095 106.133 70.9841C105.858 72.4028 105.583 73.8674 105.355 75.2861C105.08 76.7507 104.851 78.2152 104.622 79.7255C105.172 79.7255 105.675 79.7255 106.178 79.7255C106.224 79.5882 106.27 79.4967 106.27 79.4509C106.728 76.9337 107.139 74.4166 107.597 71.9452C107.643 71.6706 107.872 71.2587 108.101 71.1671C108.604 70.9841 109.153 70.9383 109.657 70.9383C110.892 70.9841 111.396 71.579 111.213 72.8147C111.075 73.9589 110.847 75.0573 110.664 76.2015C110.48 77.3914 110.252 78.5356 110.069 79.6797C111.396 79.9543 111.67 79.9085 111.762 79.1305C112.128 76.888 112.54 74.6912 112.86 72.4486C113.043 71.2129 112.311 70.2518 111.121 69.9772Z" fill="#9CA2A6"/>
<path d="M45.1259 69.9772C43.936 69.7026 42.7918 69.9772 41.6934 70.3433C41.0527 70.5721 40.9154 70.8925 41.2815 71.5332C41.6934 71.3959 42.0596 71.2586 42.4257 71.2129C43.158 71.1213 43.8902 71.0298 44.6225 71.1213C45.4005 71.2129 45.5836 71.8994 45.5836 72.6316C45.5836 73.3639 45.1717 73.5469 44.531 73.5927C43.7987 73.6385 43.0664 73.8215 42.3342 74.0504C40.9612 74.508 39.817 75.2403 39.4051 76.7506C38.9474 78.2609 39.5424 79.4051 40.9612 79.817C42.5172 80.2746 44.0733 80 45.5836 79.4966C45.7667 79.4508 45.9497 79.1762 45.9955 78.9932C46.3616 76.8879 46.7735 74.8284 47.0939 72.7231C47.277 71.2129 46.5905 70.2975 45.1259 69.9772ZM44.531 78.3982C44.4852 78.5355 44.3479 78.7643 44.2106 78.8101C43.341 79.0389 42.4257 79.222 41.6019 78.7643C40.9612 78.3982 40.7323 77.7575 40.9612 76.8879C41.2358 75.9726 41.7392 75.2403 42.6545 74.9199C43.4326 74.6453 44.2564 74.4623 45.2632 74.1877C44.9886 75.7437 44.7598 77.071 44.531 78.3982Z" fill="#9CA2A6"/>
<path d="M135.332 69.9771C133.867 69.611 132.494 70.0229 131.121 70.5263C131.167 70.8467 131.213 71.1213 131.305 71.4874C131.899 71.3043 132.357 71.0755 132.861 71.0755C133.593 71.0297 134.325 71.0297 135.012 71.2586C135.698 71.4874 135.607 72.1739 135.607 72.8146C135.561 73.5011 135.103 73.4096 134.691 73.5011C133.822 73.6842 132.906 73.8215 132.083 74.1419C130.893 74.5538 129.932 75.3318 129.565 76.6133C129.108 78.2151 129.657 79.3593 131.076 79.7712C132.632 80.2288 134.188 79.9542 135.698 79.4508C135.881 79.405 136.064 79.1304 136.11 78.9474C136.476 76.7963 136.888 74.5995 137.208 72.4485C137.3 71.2128 136.568 70.2517 135.332 69.9771ZM134.6 78.2609C134.554 78.4439 134.371 78.7643 134.234 78.7643C133.41 78.8101 132.586 78.9474 131.808 78.7643C131.442 78.6728 131.03 78.032 130.938 77.6201C130.71 76.6133 131.35 75.5149 132.403 75.0572C133.272 74.6911 134.188 74.508 135.286 74.1419C135.057 75.6979 134.829 76.9794 134.6 78.2609Z" fill="#9CA2A6"/>
<path d="M101.876 69.9771C100.366 69.611 98.9931 70.0229 97.5743 70.5263C97.6659 70.8924 97.7574 71.2128 97.8489 71.4874C98.4439 71.3043 98.9016 71.0755 99.3592 71.0755C100.046 71.0297 100.778 71.0297 101.465 71.2128C102.288 71.4416 102.105 72.2654 102.105 72.9062C102.059 73.5469 101.556 73.4096 101.19 73.5011C100.32 73.6842 99.405 73.8215 98.5812 74.1419C97.2082 74.5995 96.2471 75.5149 95.9725 76.9794C95.6979 78.4439 96.2929 79.4966 97.7574 79.7712C98.6727 79.9542 99.5881 79.9542 100.503 79.8169C102.517 79.5423 102.517 79.4966 102.838 77.5744C103.158 75.7895 103.478 73.9588 103.661 72.1739C103.753 70.984 103.066 70.2975 101.876 69.9771ZM101.098 78.4897C101.098 78.627 100.915 78.8101 100.778 78.8101C99.9542 78.8558 99.1304 78.9474 98.3524 78.8558C97.6659 78.7643 97.2997 77.9405 97.437 77.2082C97.6201 76.2471 98.0778 75.4233 98.9931 75.0572C99.8169 74.7368 100.732 74.508 101.831 74.1876C101.556 75.7895 101.327 77.1625 101.098 78.4897Z" fill="#9CA2A6"/>
<path d="M23.6156 71.8994C23.3868 70.8467 22.7003 70.206 21.6476 69.9772C19.8627 69.611 18.3524 70.1602 17.2998 71.579C16.0183 73.2723 15.6522 75.2403 15.881 77.2998C16.0183 78.5355 16.9337 79.6339 18.0778 79.7712C19.222 79.8627 20.4119 79.817 21.5103 79.6339C22.4714 79.4966 22.4714 79.3135 22.1968 78.3067C21.6934 78.444 21.2357 78.5813 20.7323 78.6728C19.0389 79.0389 17.3456 78.6728 17.254 76.1556C17.254 75.698 17.2998 75.5607 17.7575 75.4691C19.0847 75.2861 20.4119 75.0572 21.7849 74.8742C23.8444 74.5996 23.8902 74.5538 23.7071 72.4943C23.7529 72.3112 23.6614 72.0824 23.6156 71.8994ZM22.2426 73.9588C20.595 74.1877 19.0847 74.4165 17.4371 74.6453C17.849 73.0435 18.2151 71.579 19.8627 71.0298C21.19 70.5721 22.1968 71.3044 22.2426 72.7231C22.2426 73.0893 22.2426 73.4554 22.2426 73.9588Z" fill="#9CA2A6"/>
<path d="M77.1167 69.9771C77.2998 68.6041 77.3456 67.2768 78.9016 66.7276C79.222 66.5903 79.4508 66.1327 79.817 65.675C77.254 65.6292 76.2014 66.453 75.698 68.7871C75.5149 69.5194 75.5149 70.3432 74.3707 69.9771C74.325 70.389 74.2792 70.6636 74.2334 70.9839C74.5996 71.0297 74.9199 71.0755 75.2861 71.0755C74.7826 73.9588 74.2792 76.7963 73.8215 79.6338C75.2861 79.9542 75.3776 79.9084 75.6064 78.627C76.0183 76.3844 76.476 74.1418 76.7964 71.8993C76.8879 71.167 77.2083 70.9382 77.8948 71.0297C78.7186 71.167 78.8559 70.7093 78.7186 70.0228C78.1694 70.0228 77.6659 69.9771 77.1167 69.9771Z" fill="#9CA2A6"/>
<path d="M90.3892 71.8078C89.3823 73.2723 89.062 74.9657 89.1077 76.7506C89.1535 77.9863 89.5196 79.0847 90.7096 79.6797C91.9453 80.2746 93.181 79.9543 94.3709 79.3593C94.2793 78.9932 94.1878 78.7186 94.142 78.3982C93.8675 78.444 93.6386 78.5355 93.4098 78.5813C91.9453 78.9932 91.0757 78.4897 90.8011 77.0252C90.5265 75.698 90.8469 74.4165 91.3045 73.2266C91.9453 71.579 93.0894 70.4806 95.1947 71.3044C95.2404 71.3502 95.332 71.3044 95.4693 71.3044C95.6066 71.0298 95.7439 70.7552 95.8812 70.4348C93.8217 69.3364 91.7164 69.8856 90.3892 71.8078Z" fill="#9CA2A6"/>
<path d="M80.1829 71.9909C80.1829 72.0824 80.1372 72.1282 80.1372 72.2197C79.6795 74.6911 79.2676 77.1625 78.8557 79.6339C80.2287 80 80.4575 79.8627 80.6406 78.7186C81.0067 76.476 81.4186 74.2792 81.7848 72.0367C81.8763 71.3502 82.1967 71.0298 82.8374 71.0756C83.0205 71.0756 83.2035 71.0298 83.3866 71.0756C84.2104 71.2129 84.5308 70.7552 84.6223 69.8856C83.7527 69.9314 82.8832 69.9314 82.0594 70.0687C80.4575 70.2975 80.4575 70.3433 80.1829 71.9909Z" fill="#9CA2A6"/>
<path d="M86.2242 71.1672C85.9496 72.5402 85.7207 73.8674 85.4919 75.2404C85.2173 76.705 84.9885 78.2153 84.7139 79.7713C85.08 79.7713 85.3546 79.7713 85.5834 79.7713C85.8123 79.7713 86.0411 79.7256 86.3157 79.7256C86.8649 76.4761 87.4599 73.2725 88.0091 70.1146C86.453 69.84 86.453 69.84 86.2242 71.1672Z" fill="#9CA2A6"/>
<path d="M87.7803 66.4531C87.1396 66.4531 86.7734 66.8193 86.7734 67.5058C86.7734 67.9634 86.865 68.238 87.3684 68.1465C88.1464 68.1465 88.6499 67.8261 88.6499 67.2312C88.6499 66.6362 88.2837 66.4531 87.7803 66.4531Z" fill="#9CA2A6"/>
<path d="M158.169 57.4371H0.960938V58.9474H158.169V57.4371Z" fill="#9CA2A6"/>
</svg>
