<svg width="83" height="64" viewBox="0 0 83 64" fill="none" xmlns="http://www.w3.org/2000/svg">
<path d="M82.7946 43.8229H53.3637V41.3973C53.3637 29.3601 43.5702 19.5667 31.5331 19.5667C19.4959 19.5667 9.70249 29.3601 9.70249 41.3973V43.8229H0V41.3973C0 30.3399 4.30611 19.9438 12.125 12.125C19.9438 4.30611 30.3399 0 41.3973 0C52.4547 0 62.8508 4.30611 70.6696 12.125C78.4885 19.9438 82.7946 30.3399 82.7946 41.3973V43.8229Z" fill="#2A1571"/>
<path d="M70.6696 12.125C62.8507 4.30611 52.4547 0 41.3972 0C30.3398 0 19.9437 4.30611 12.1249 12.125C11.5501 12.6991 10.9974 13.2898 10.4604 13.8911L19.6576 23.0883C23.0781 20.8622 27.1568 19.5667 31.533 19.5667C41.5507 19.5667 50.0132 26.3502 52.5709 35.5651L82.7547 39.6286C82.3208 29.2351 78.0702 19.5256 70.6696 12.125Z" fill="#170944"/>
<path d="M53.3637 41.3973V43.8229H82.7946V41.3973C82.7946 30.3399 78.4885 19.9438 70.6697 12.125C62.8508 4.30611 52.4548 0 41.3973 0V21.926C48.4917 25.5347 53.3637 32.9076 53.3637 41.3973Z" fill="#090320"/>
<path d="M72.4756 12.1282L35.2417 46.0995C33.8791 47.3426 33.8299 49.4714 35.1343 50.7752L44.2272 59.8681C45.5329 61.1744 47.666 61.1232 48.9079 59.7556L82.7946 22.4446V12.1282H72.4756Z" fill="#C90B12"/>
<path d="M44.2266 59.8681C45.5329 61.1744 47.666 61.1232 48.9079 59.7556L82.7946 22.4446V12.1282L39.6766 55.3181L44.2266 59.8681Z" fill="#C90B12"/>
<path d="M41.3967 63.3099C38.8049 63.3099 36.3679 62.3005 34.5354 60.468C30.753 56.6849 30.753 50.5293 34.5354 46.7462C36.3679 44.9137 38.8049 43.9043 41.3967 43.9043C43.9878 43.9043 46.4248 44.9137 48.2573 46.7462C52.0404 50.5293 52.0404 56.6843 48.2573 60.468C46.4248 62.3005 43.9878 63.3099 41.3967 63.3099Z" fill="#090220"/>
<path d="M48.2572 46.7463L34.5354 60.4682C36.3679 62.3006 38.8049 63.3101 41.3966 63.3101C43.9877 63.3101 46.4247 62.3006 48.2572 60.4682C52.0397 56.6851 52.0397 50.5294 48.2572 46.7463Z" fill="#090220"/>
</svg>
