   <svg
            width="133"
            height="25"
            viewBox="0 0 133 25"
            fill="none"
            xmlns="http://www.w3.org/2000/svg"
          >
            <path
              d="M51.8538 4.81992H55.5085V6.0911C55.8792 5.7733 57.1504 4.55508 59.5339 4.55508C62.2881 4.55508 64.4597 6.5678 64.4597 9.79873V18.1144H60.5932V10.8051C60.5932 9.00424 59.7458 7.94491 58.1568 7.94491C56.6208 7.94491 55.7203 8.95127 55.7203 10.8051V18.0614H51.8538V4.81992ZM88.6652 11.4407C88.6652 7.62712 91.7373 4.50212 95.7097 4.50212C99.7352 4.50212 102.754 7.62712 102.754 11.4407C102.754 15.2542 99.6822 18.3792 95.7097 18.3792C91.7373 18.3792 88.6652 15.2542 88.6652 11.4407ZM92.4788 11.4407C92.4788 13.2415 93.8559 14.7775 95.7627 14.7775C97.6695 14.7775 99.0466 13.2945 99.0466 11.4407C99.0466 9.58686 97.6695 8.10381 95.7627 8.10381C93.8559 8.10381 92.4788 9.63983 92.4788 11.4407ZM35.5932 11.4407C35.5932 7.62712 38.6653 4.50212 42.6377 4.50212C46.6631 4.50212 49.6822 7.62712 49.6822 11.4407C49.6822 15.2542 46.6102 18.3792 42.6377 18.3792C38.6653 18.3792 35.5932 15.2542 35.5932 11.4407ZM39.4068 11.4407C39.4068 13.2945 40.7839 14.7775 42.6907 14.7775C44.5975 14.7775 45.9746 13.2945 45.9746 11.4407C45.9746 9.58686 44.5975 8.10381 42.6907 8.10381C40.7839 8.10381 39.4068 9.63983 39.4068 11.4407ZM121.557 3.38983H125.477V0H121.557V3.38983ZM121.557 18.0614H125.477V4.81992H121.557V18.0614ZM128.496 18.0614H132.415V0H128.496V18.0614ZM108.792 18.0614H105.085V0H108.845V5.87924C109.057 5.72034 110.275 4.50212 112.924 4.50212C116.419 4.50212 119.333 7.46822 119.333 11.4407C119.333 15.3602 116.261 18.3792 112.924 18.3792C110.381 18.3792 109.163 17.2669 108.898 17.0551L108.792 18.0614ZM115.307 11.4407C115.307 9.58686 113.877 8.15678 112.023 8.15678C110.169 8.15678 108.686 9.58686 108.686 11.4936C108.686 13.3475 110.117 14.7775 112.023 14.7775C113.877 14.7246 115.307 13.2945 115.307 11.4407ZM12.7648 18.0614H17.3199L21.3983 12.8178L23.9407 15.4131L18.1144 22.6695H22.6695L26.3771 17.8496L33.3686 25H38.8771L28.8136 14.8305L36.7585 4.81992H32.2034L26.3242 12.3411L23.7818 9.79873L30.3496 1.58898H25.7945L21.3453 7.30932L18.9089 4.81992H13.5064L18.9619 10.3284L12.7648 18.0614ZM0 0V18.0614H11.9174V14.6716H4.02542V10.3814H11.4936V7.09746H4.02542V3.38983H11.8644V0H0ZM67.5847 0V18.0614H71.3983V4.44915H71.5572L74.8411 18.0614H79.1313L82.4682 4.44915H82.6271V18.0614H86.4407V0H80.2436L77.1716 13.1886H77.0127L73.9407 0H67.5847Z"
              fill="#9CA2A6"
            />
          </svg>