<svg width="10" height="19" viewBox="0 0 10 19" fill="none" xmlns="http://www.w3.org/2000/svg">
<path d="M9.60531 0.0038412L7.21128 0C4.52167 0 2.78353 1.78328 2.78353 4.54337V6.63817H0.376445C0.168444 6.63817 7.62939e-06 6.8068 7.62939e-06 7.0148V10.0499C7.62939e-06 10.2579 0.168636 10.4264 0.376445 10.4264H2.78353V18.0849C2.78353 18.2929 2.95197 18.4614 3.15997 18.4614H6.30053C6.50853 18.4614 6.67697 18.2928 6.67697 18.0849V10.4264H9.49142C9.69942 10.4264 9.86785 10.2579 9.86785 10.0499L9.86901 7.0148C9.86901 6.91493 9.82925 6.81928 9.75876 6.7486C9.68828 6.67793 9.59225 6.63817 9.49238 6.63817H6.67697V4.86238C6.67697 4.00887 6.88036 3.57558 7.9922 3.57558L9.60492 3.575C9.81273 3.575 9.98117 3.40638 9.98117 3.19857V0.380279C9.98117 0.172662 9.81292 0.00422532 9.60531 0.0038412Z" fill="white"/>
</svg>
