<svg width="19" height="19" viewBox="0 0 19 19" fill="none" xmlns="http://www.w3.org/2000/svg">
<path d="M15.7572 0H2.70433C1.21329 0 0 1.21329 0 2.70433V15.7572C0 17.2483 1.21329 18.4616 2.70433 18.4616H15.7572C17.2483 18.4616 18.4616 17.2483 18.4616 15.7572V2.70433C18.4616 1.21329 17.2483 0 15.7572 0ZM9.26684 14.0625C6.58265 14.0625 4.39905 11.8789 4.39905 9.19473C4.39905 6.51054 6.58265 4.32693 9.26684 4.32693C11.951 4.32693 14.1346 6.51054 14.1346 9.19473C14.1346 11.8789 11.951 14.0625 9.26684 14.0625ZM14.6755 5.40866C13.7808 5.40866 13.0529 4.68075 13.0529 3.78606C13.0529 2.89138 13.7808 2.16347 14.6755 2.16347C15.5702 2.16347 16.2981 2.89138 16.2981 3.78606C16.2981 4.68075 15.5702 5.40866 14.6755 5.40866Z" fill="white"/>
<path d="M14.6755 3.24524C14.377 3.24524 14.1346 3.48764 14.1346 3.78611C14.1346 4.08457 14.377 4.32697 14.6755 4.32697C14.974 4.32697 15.2164 4.08457 15.2164 3.78611C15.2164 3.48764 14.974 3.24524 14.6755 3.24524Z" fill="white"/>
<path d="M9.26684 5.40869C7.17943 5.40869 5.48077 7.10735 5.48077 9.19476C5.48077 11.2822 7.17943 12.9808 9.26684 12.9808C11.3542 12.9808 13.0529 11.2822 13.0529 9.19476C13.0529 7.10735 11.3542 5.40869 9.26684 5.40869Z" fill="white"/>
</svg>
