<svg width="180" height="60" viewBox="0 0 180 60" fill="none" xmlns="http://www.w3.org/2000/svg">
<path d="M32.2034 40.1695V20.5085H40.8475L49.8729 0H26.3559L0 60H39.8729L43.8136 51.0593H27.4576L32.2034 40.1695Z" fill="#9CA2A6"/>
<path d="M58.8983 30.7204H63.1356L61.0169 25.4662H60.9745L58.8983 30.7204ZM56.0593 21.9916H66.2712L73.1779 38.0509H65.4237L64.1525 34.5763H57.9237L56.7373 38.0509H49.3644L56.0593 21.9916Z" fill="#9CA2A6"/>
<path d="M74.9152 21.9916H91.4406V25.8475H82.3304V28.4323H91.144V32.3306H82.3304V38.0509H74.9152V21.9916Z" fill="#9CA2A6"/>
<path d="M100.466 30.7204H104.746L102.67 25.4238H102.585L100.466 30.7204ZM97.6697 21.9916H107.839L114.704 38.0509H106.992L105.721 34.5763H99.4917L98.3053 38.0509H90.9324L97.6697 21.9916Z" fill="#9CA2A6"/>
<path d="M123.941 28.9831H125.89C127.373 28.9831 128.856 28.856 128.856 27.2034C128.856 25.7628 127.415 25.5509 125.975 25.5509H123.941V28.9831ZM116.907 21.9916H128.814C133.432 21.9916 136.271 23.178 136.271 26.2712C136.271 28.7289 134.407 30.0001 131.653 30.5085V30.5509C133.263 30.8051 134.195 31.4407 134.915 32.2882C136.059 33.9831 135.975 36.4831 136.737 38.0509H129.025C128.686 36.9068 128.644 34.4068 128.008 33.4323C127.542 32.6695 126.822 32.5848 125.89 32.5848H124.237V38.0509H116.864L116.907 21.9916Z" fill="#9CA2A6"/>
<path d="M158.347 37.4152C155.805 38.0508 153.432 38.305 150.381 38.305C143.983 38.305 138.856 35.5084 138.856 29.788C138.856 24.4067 144.195 21.6948 150.381 21.6948C153.983 21.6948 155.72 21.9491 157.585 22.288V26.6101C156.525 26.1016 154.534 25.6779 152.5 25.6779C148.814 25.6779 146.398 27.2033 146.398 30.127C146.398 32.3304 147.458 34.2796 150.424 34.2796C150.932 34.2796 151.568 34.2796 151.992 34.1524V31.9914H150.381V28.9406H158.347V37.4152Z" fill="#9CA2A6"/>
<path d="M162.627 21.9916H179.364V25.8475H169.873V28.1356H178.941V31.9916H169.873V34.1526H179.534V38.0509H162.627V21.9916Z" fill="#9CA2A6"/>
<path d="M41.1015 21.9916V33.3051H49.2795V38.0509H33.6863V21.9916H41.1015Z" fill="#9CA2A6"/>
</svg>
