<svg width="71" height="40" viewBox="0 0 71 40" fill="none" xmlns="http://www.w3.org/2000/svg">
<g clip-path="url(#clip0)">
<path d="M20 40C8.97201 40 0 31.028 0 20C0 8.97201 8.97201 0 20 0C22.7734 0.00329048 25.516 0.5818 28.0545 1.69897C30.5929 2.81615 32.8721 4.4477 34.7479 6.49053C34.8564 6.60898 34.9134 6.76566 34.9063 6.92613C34.8993 7.08659 34.8288 7.23768 34.7103 7.34616C34.5919 7.45464 34.4352 7.51163 34.2747 7.50459C34.1143 7.49754 33.9632 7.42705 33.8547 7.3086C32.0926 5.38932 29.9515 3.8564 27.5668 2.80671C25.182 1.75701 22.6055 1.21337 20 1.21013C9.63933 1.21013 1.21013 9.63933 1.21013 20C1.21013 30.3607 9.63933 38.7899 20 38.7899C23.9666 38.8002 27.8331 37.5454 31.0378 35.2079C31.1017 35.1572 31.1752 35.12 31.2538 35.0985C31.3324 35.077 31.4146 35.0716 31.4954 35.0826C31.5762 35.0937 31.6539 35.1209 31.7239 35.1627C31.7939 35.2046 31.8547 35.2601 31.9027 35.326C31.9507 35.392 31.9849 35.4669 32.0032 35.5463C32.0214 35.6258 32.0235 35.7081 32.0092 35.7884C31.9948 35.8687 31.9644 35.9452 31.9198 36.0135C31.8751 36.0817 31.8172 36.1402 31.7493 36.1854C28.3383 38.6743 24.2225 40.0105 20 40Z" fill="white"/>
<path d="M50.4146 30.9351H46.3757L45.2952 28.6245H37.7037L36.6232 30.9351H32.5838L41.4992 11.8726L50.4146 30.9351ZM43.584 24.9668L41.4992 20.5081L39.4144 24.9658L43.584 24.9668Z" fill="white"/>
<path d="M69.2015 30.9354H64.5858L58.422 22.9225L57.1532 24.1907V30.9354H53.4946V12.4512H57.1532V19.0163L63.7194 12.4512H68.8928L61.0579 20.2866L69.2015 30.9354Z" fill="white"/>
<path d="M42.5447 34.4016C42.5447 34.5425 42.4845 34.6125 42.3621 34.6125H39.47C39.4899 35.0039 39.6319 35.32 39.896 35.5608C40.1601 35.8015 40.4899 35.9216 40.8854 35.9209C41.2444 35.9265 41.5949 35.8117 41.881 35.5947C42.1702 35.3766 42.3098 35.2675 42.2998 35.2675C42.4027 35.2675 42.4542 35.3225 42.4542 35.4321C42.4499 35.4829 42.4283 35.5307 42.3929 35.5674C42.0156 36.0068 41.5183 36.2265 40.9009 36.2265C40.3826 36.2265 39.9564 36.0657 39.6223 35.7439C39.2882 35.4222 39.1207 35.0095 39.1196 34.506C39.1144 34.2798 39.1564 34.055 39.2429 33.8459C39.3295 33.6368 39.4587 33.4481 39.6223 33.2918C39.9494 32.9836 40.3799 32.8089 40.8293 32.802C41.2786 32.795 41.7143 32.9563 42.0508 33.2542C42.2113 33.3983 42.3386 33.5755 42.4239 33.7736C42.5092 33.9717 42.5504 34.186 42.5447 34.4016ZM42.1949 34.3079C42.174 33.9763 42.0245 33.666 41.7781 33.443C41.531 33.2179 41.2067 33.0967 40.8726 33.1045C40.526 33.0964 40.1887 33.217 39.9259 33.443C39.6659 33.6597 39.5017 33.9701 39.469 34.3069L42.1949 34.3079Z" fill="white"/>
<path d="M46.5327 36.0433C46.5327 36.1462 46.4813 36.1976 46.3814 36.1976C46.358 36.1962 46.3351 36.19 46.3141 36.1796C46.2931 36.1692 46.2743 36.1547 46.259 36.1369L44.965 34.7061L43.7019 36.1369C43.6865 36.1546 43.6677 36.169 43.6467 36.1795C43.6257 36.1899 43.6028 36.196 43.5794 36.1976C43.5584 36.201 43.5369 36.1993 43.5166 36.1927C43.4964 36.1862 43.4779 36.1749 43.4629 36.1598C43.4478 36.1448 43.4365 36.1264 43.43 36.1061C43.4234 36.0858 43.4217 36.0643 43.4251 36.0433C43.4252 36.0232 43.4293 36.0033 43.4373 35.9848C43.4452 35.9663 43.4568 35.9496 43.4714 35.9357L44.7654 34.4678L43.5012 33.0607C43.4869 33.0469 43.4754 33.0304 43.4676 33.0121C43.4599 32.9938 43.4559 32.9741 43.456 32.9542C43.456 32.8513 43.5115 32.7998 43.6237 32.7998C43.6655 32.8063 43.7034 32.8284 43.7297 32.8615L44.9645 34.2466L46.1674 32.8615C46.1825 32.8437 46.2011 32.829 46.2219 32.8184C46.2428 32.8078 46.2655 32.8015 46.2888 32.7998C46.3917 32.7998 46.4432 32.8559 46.4432 32.9681C46.4422 32.9856 46.4377 33.0027 46.4299 33.0185C46.4221 33.0342 46.4112 33.0482 46.3979 33.0596L45.1801 34.4668L46.489 35.9347C46.5032 35.9489 46.5145 35.9659 46.522 35.9845C46.5295 36.0032 46.5331 36.0232 46.5327 36.0433Z" fill="white"/>
<path d="M50.5989 35.6603C50.5985 35.6796 50.5943 35.6987 50.5865 35.7164C50.5786 35.7341 50.5672 35.75 50.5531 35.7632C50.2382 36.0719 49.7763 36.2263 49.1675 36.2263C48.6396 36.2263 48.1937 36.0704 47.8298 35.7586C47.639 35.6113 47.4855 35.4212 47.3817 35.2036C47.2778 34.9861 47.2265 34.7472 47.232 34.5062C47.232 33.9938 47.4146 33.5822 47.7799 33.2714C48.1452 32.9607 48.5911 32.8046 49.1176 32.8032C49.6664 32.8032 50.118 32.9325 50.4723 33.1912C50.5021 33.2075 50.5274 33.2311 50.5459 33.2596C50.5644 33.2882 50.5755 33.3209 50.5783 33.3548C50.5783 33.4546 50.5268 33.5035 50.4239 33.5035C50.3742 33.496 50.3272 33.4758 50.2876 33.4448C49.9465 33.2184 49.545 33.1003 49.1356 33.1058C48.6986 33.1058 48.328 33.2339 48.0238 33.4901C47.7195 33.7463 47.5672 34.085 47.5669 34.5062C47.5669 34.9384 47.7269 35.2825 48.0469 35.5384C48.3678 35.7945 48.7683 35.9303 49.1788 35.9222C49.4721 35.9152 49.7605 35.845 50.0242 35.7164C50.3229 35.5792 50.4625 35.5106 50.443 35.5106C50.5479 35.5111 50.5989 35.561 50.5989 35.6603Z" fill="white"/>
<path d="M51.9835 35.9835C51.9835 36.0951 51.9274 36.1507 51.8162 36.1507C51.7133 36.1507 51.6619 36.0951 51.6619 35.9835V27.3665C51.6619 27.2548 51.7133 27.1987 51.8162 27.1987C51.9274 27.1987 51.9835 27.2548 51.9835 27.3665V35.9835Z" fill="white"/>
<path d="M56.3681 34.5294C56.3681 35.1049 56.2285 35.5318 55.9493 35.81C55.6701 36.0882 55.3072 36.2271 54.8606 36.2267C54.4346 36.2267 54.0796 36.0895 53.7955 35.8151C53.5115 35.5407 53.3694 35.112 53.369 34.5289V33.0316C53.369 32.9287 53.4251 32.8773 53.5362 32.8773C53.5573 32.8738 53.5789 32.8754 53.5992 32.8819C53.6195 32.8885 53.638 32.8997 53.653 32.9148C53.6681 32.9299 53.6794 32.9484 53.6859 32.9687C53.6925 32.989 53.6941 33.0106 53.6906 33.0316V34.5289C53.6906 35.0334 53.7971 35.3919 54.0101 35.6042C54.2231 35.8165 54.5073 35.9225 54.8626 35.9222C55.2183 35.9222 55.5128 35.8112 55.746 35.5893C55.9488 35.3972 56.0503 35.0437 56.0506 34.5289V33.0316C56.0506 32.9287 56.1021 32.8773 56.205 32.8773C56.3161 32.8773 56.3722 32.9287 56.3722 33.0316L56.3681 34.5294Z" fill="white"/>
<path d="M60.1739 33.5045C60.1739 33.6043 60.1224 33.6537 60.0195 33.6537C59.9996 33.6537 59.8779 33.5624 59.6542 33.3799C59.4414 33.2011 59.1718 33.1039 58.8938 33.1057C58.6206 33.1021 58.3536 33.1868 58.1323 33.347C58.0265 33.4182 57.9403 33.5149 57.8817 33.6282C57.823 33.7415 57.7939 33.8678 57.7969 33.9953C57.7969 34.2875 58.0483 34.5239 58.5511 34.7043C59.054 34.8847 59.3051 35.136 59.3044 35.4581C59.3092 35.5669 59.2874 35.6754 59.241 35.774C59.1946 35.8726 59.1248 35.9584 59.0378 36.024C58.8513 36.1634 58.6233 36.2359 58.3906 36.2298C58.2249 36.2241 58.061 36.1943 57.9039 36.1413C57.6605 36.0724 57.5381 35.9942 57.5381 35.9052C57.5381 35.8069 57.5895 35.758 57.6924 35.758C57.792 35.7741 57.8893 35.8023 57.9821 35.8419C58.1133 35.8936 58.2527 35.9218 58.3937 35.9252C58.7693 35.9252 58.9571 35.7745 58.9571 35.473C58.9571 35.2924 58.8259 35.1514 58.5609 35.0506C58.115 34.8599 57.8766 34.7544 57.8457 34.7341C57.5813 34.5736 57.4501 34.3225 57.4501 33.9804C57.4501 33.6188 57.6024 33.3273 57.907 33.1057C58.1899 32.9014 58.532 32.7953 58.8809 32.8037C59.2386 32.7977 59.5876 32.9139 59.8703 33.133C60.073 33.2889 60.1739 33.4149 60.1739 33.5045Z" fill="white"/>
<path d="M61.6346 30.7001C61.6346 30.9032 61.5231 31.0047 61.3002 31.0047C61.0866 31.0047 60.9807 30.9018 60.9807 30.7001C60.9807 30.4984 61.0866 30.3955 61.3002 30.3955C61.5235 30.3955 61.635 30.497 61.6346 30.7001ZM61.4674 35.9831C61.4674 36.0947 61.4113 36.1503 61.3002 36.1503C61.1973 36.1503 61.1458 36.0947 61.1458 35.9831V33.0313C61.1423 33.0103 61.1439 32.9887 61.1505 32.9684C61.157 32.9481 61.1683 32.9296 61.1834 32.9145C61.1984 32.8994 61.2169 32.8882 61.2372 32.8816C61.2575 32.8751 61.2791 32.8735 61.3002 32.877C61.4113 32.877 61.4674 32.9284 61.4674 33.0313V35.9831Z" fill="white"/>
<path d="M66.1258 32.9542C66.1258 32.9844 65.5829 34.0191 64.4969 36.0583C64.4454 36.1504 64.3904 36.1962 64.3297 36.1962C64.2689 36.1962 64.2134 36.1504 64.1624 36.0593L62.5031 33.0448C62.4917 33.0211 62.4862 32.9949 62.4872 32.9686C62.4872 32.8571 62.5386 32.8012 62.6415 32.8009C62.671 32.8005 62.6999 32.8091 62.7244 32.8254C62.7489 32.8418 62.7679 32.8651 62.7789 32.8925L64.3317 35.7547L65.8393 32.8775C65.8527 32.8534 65.8726 32.8335 65.8966 32.82C65.9207 32.8065 65.948 32.7999 65.9756 32.8009C66.0754 32.8009 66.1258 32.8518 66.1258 32.9542Z" fill="white"/>
<path d="M70.0988 34.4017C70.0988 34.5426 70.0386 34.6126 69.9162 34.6126H67.0241C67.044 35.004 67.186 35.3201 67.4501 35.5609C67.7142 35.8016 68.044 35.9217 68.4395 35.921C68.7992 35.9267 69.1503 35.8115 69.4367 35.5938C69.7263 35.3756 69.8653 35.2666 69.8555 35.2666C69.9584 35.2666 70.0098 35.3216 70.0098 35.4312C70.0055 35.482 69.9839 35.5298 69.9486 35.5665C69.573 36.0059 69.0756 36.2256 68.4565 36.2256C67.9386 36.2256 67.5124 36.0647 67.1779 35.743C66.8435 35.4213 66.6759 35.0086 66.6752 34.5051C66.67 34.2788 66.712 34.054 66.7985 33.8449C66.8851 33.6358 67.0143 33.4471 67.1779 33.2908C67.505 32.9827 67.9356 32.8079 68.3849 32.801C68.8343 32.794 69.27 32.9554 69.6065 33.2533C69.9354 33.5561 70.0995 33.9389 70.0988 34.4017ZM69.749 34.308C69.7276 33.9761 69.5773 33.6657 69.3302 33.4431C69.0832 33.2178 68.7588 33.0965 68.4246 33.1046C68.0791 33.0973 67.7431 33.2179 67.481 33.4431C67.221 33.6598 67.0568 33.9701 67.0241 34.307L69.749 34.308Z" fill="white"/>
<path d="M29.5059 33.3945L27.9624 30.7026C27.1683 31.2581 26.3169 31.7267 25.4228 32.1006L26.972 34.8079C27.8562 34.4114 28.704 33.9385 29.5059 33.3945Z" fill="white"/>
<path d="M28.7137 5.49463L26.8615 7.98382C27.6882 8.48956 28.4583 9.0824 29.1587 9.75219L31.0197 7.2491C30.3034 6.59853 29.5318 6.0115 28.7137 5.49463Z" fill="white"/>
<path d="M32.1111 20.0002C32.1111 13.3116 26.6887 7.88916 20.0001 7.88916C13.3115 7.88916 7.88904 13.3116 7.88904 20.0002C7.88768 21.8947 8.33145 23.7631 9.18456 25.4547C10.0377 27.1462 11.2763 28.6137 12.8006 29.7388L16.7818 22.7827L18.4514 25.6999L15.3191 31.1723C16.8406 31.8085 18.4759 32.1275 20.1249 32.1098C21.774 32.0921 23.4021 31.7381 24.9095 31.0694L18.5013 19.8742H21.841L27.3993 29.5845C28.8661 28.4544 30.0538 27.0025 30.8708 25.3408C31.6877 23.6791 32.1121 21.8519 32.1111 20.0002Z" fill="white"/>
</g>
<defs>
<clipPath id="clip0">
<rect width="70.0988" height="40" fill="white"/>
</clipPath>
</defs>
</svg>
