<svg width="71" height="40" viewBox="0 0 71 40" fill="none" xmlns="http://www.w3.org/2000/svg">
<g clip-path="url(#clip0)">
<path d="M20 40C8.97201 40 0 31.028 0 20C0 8.97201 8.97201 0 20 0C22.7734 0.00329048 25.516 0.5818 28.0545 1.69897C30.5929 2.81615 32.8721 4.4477 34.7479 6.49053C34.8564 6.60898 34.9134 6.76566 34.9063 6.92613C34.8993 7.08659 34.8288 7.23768 34.7103 7.34616C34.5919 7.45464 34.4352 7.51163 34.2747 7.50459C34.1143 7.49754 33.9632 7.42705 33.8547 7.3086C32.0926 5.38932 29.9515 3.8564 27.5668 2.80671C25.182 1.75701 22.6055 1.21337 20 1.21013C9.63933 1.21013 1.21013 9.63933 1.21013 20C1.21013 30.3607 9.63933 38.7899 20 38.7899C23.9666 38.8002 27.8331 37.5454 31.0378 35.2079C31.1017 35.1572 31.1752 35.12 31.2538 35.0985C31.3324 35.077 31.4146 35.0716 31.4954 35.0826C31.5762 35.0937 31.6539 35.1209 31.7239 35.1627C31.7939 35.2046 31.8547 35.2601 31.9027 35.326C31.9507 35.392 31.9849 35.4669 32.0032 35.5463C32.0214 35.6258 32.0235 35.7081 32.0092 35.7884C31.9948 35.8687 31.9644 35.9452 31.9198 36.0135C31.8751 36.0817 31.8172 36.1402 31.7493 36.1854C28.3383 38.6743 24.2225 40.0105 20 40Z" fill="#B12B27"/>
<path d="M50.4148 30.9356H46.3759L45.2955 28.625H37.7039L36.6234 30.9356H32.584L41.4994 11.873L50.4148 30.9356ZM43.5842 24.9673L41.4994 20.5086L39.4146 24.9663L43.5842 24.9673Z" fill="#2C2379"/>
<path d="M69.2016 30.9354H64.5859L58.4221 22.9225L57.1533 24.1907V30.9354H53.4946V12.4512H57.1533V19.0163L63.7195 12.4512H68.8929L61.0579 20.2866L69.2016 30.9354Z" fill="#2C2379"/>
<path d="M42.5446 34.4016C42.5446 34.5426 42.4844 34.6125 42.362 34.6125H39.47C39.4898 35.0039 39.6319 35.32 39.896 35.5608C40.1601 35.8015 40.4899 35.9216 40.8853 35.9209C41.2443 35.9265 41.5949 35.8117 41.8809 35.5947C42.1701 35.3766 42.3097 35.2675 42.2997 35.2675C42.4026 35.2675 42.4541 35.3225 42.4541 35.4321C42.4498 35.4829 42.4282 35.5307 42.3928 35.5674C42.0155 36.0068 41.5182 36.2265 40.9008 36.2265C40.3825 36.2265 39.9563 36.0657 39.6222 35.7439C39.2882 35.4222 39.1206 35.0095 39.1196 34.506C39.1143 34.2798 39.1563 34.055 39.2429 33.8459C39.3294 33.6368 39.4586 33.4481 39.6222 33.2918C39.9493 32.9836 40.3798 32.8089 40.8292 32.802C41.2785 32.795 41.7142 32.9563 42.0507 33.2542C42.2112 33.3983 42.3385 33.5755 42.4238 33.7736C42.5091 33.9717 42.5503 34.186 42.5446 34.4016ZM42.1947 34.3079C42.1739 33.9763 42.0244 33.666 41.778 33.443C41.531 33.2179 41.2066 33.0967 40.8725 33.1045C40.5259 33.0964 40.1886 33.217 39.9258 33.443C39.6658 33.6597 39.5016 33.9701 39.4689 34.3069L42.1947 34.3079Z" fill="#2C2379"/>
<path d="M46.5327 36.0433C46.5327 36.1462 46.4812 36.1976 46.3814 36.1976C46.358 36.1962 46.3351 36.19 46.314 36.1796C46.293 36.1692 46.2743 36.1547 46.2589 36.1369L44.9649 34.7061L43.7018 36.1369C43.6864 36.1546 43.6677 36.169 43.6466 36.1795C43.6256 36.1899 43.6028 36.196 43.5794 36.1976C43.5583 36.201 43.5368 36.1993 43.5166 36.1927C43.4963 36.1862 43.4779 36.1749 43.4628 36.1598C43.4478 36.1448 43.4365 36.1264 43.4299 36.1061C43.4233 36.0858 43.4217 36.0643 43.425 36.0433C43.4251 36.0232 43.4293 36.0033 43.4372 35.9848C43.4452 35.9663 43.4568 35.9496 43.4713 35.9357L44.7653 34.4678L43.5012 33.0607C43.4868 33.0469 43.4754 33.0304 43.4676 33.0121C43.4598 32.9938 43.4558 32.9741 43.4559 32.9542C43.4559 32.8513 43.5115 32.7998 43.6236 32.7998C43.6655 32.8063 43.7033 32.8284 43.7296 32.8615L44.9644 34.2466L46.1674 32.8615C46.1825 32.8437 46.201 32.829 46.2218 32.8184C46.2427 32.8078 46.2655 32.8015 46.2888 32.7998C46.3917 32.7998 46.4431 32.8559 46.4431 32.9681C46.4421 32.9856 46.4376 33.0027 46.4299 33.0185C46.4221 33.0342 46.4112 33.0482 46.3979 33.0596L45.18 34.4668L46.4889 35.9347C46.5032 35.9489 46.5144 35.9658 46.5219 35.9845C46.5294 36.0032 46.5331 36.0232 46.5327 36.0433Z" fill="#2C2379"/>
<path d="M50.5987 35.6598C50.5984 35.6792 50.5942 35.6982 50.5864 35.7159C50.5785 35.7336 50.5671 35.7495 50.553 35.7627C50.2381 36.0714 49.7762 36.2258 49.1674 36.2258C48.6395 36.2258 48.1936 36.0699 47.8297 35.7581C47.6389 35.6108 47.4854 35.4207 47.3815 35.2032C47.2777 34.9856 47.2264 34.7467 47.2318 34.5058C47.2318 33.9933 47.4145 33.5817 47.7798 33.2709C48.1451 32.9602 48.591 32.8041 49.1175 32.8027C49.6663 32.8027 50.1179 32.932 50.4722 33.1907C50.502 33.2071 50.5273 33.2306 50.5458 33.2591C50.5643 33.2877 50.5754 33.3204 50.5782 33.3543C50.5782 33.4541 50.5267 33.503 50.4238 33.503C50.3741 33.4955 50.3271 33.4753 50.2875 33.4443C49.9464 33.2179 49.5449 33.0998 49.1355 33.1053C48.6985 33.1053 48.3279 33.2334 48.0237 33.4896C47.7194 33.7458 47.5671 34.0845 47.5668 34.5058C47.5668 34.9379 47.7268 35.282 48.0468 35.5379C48.3677 35.794 48.7682 35.9298 49.1787 35.9217C49.472 35.9147 49.7604 35.8445 50.024 35.7159C50.3228 35.5787 50.4624 35.5101 50.4428 35.5101C50.5478 35.5106 50.5987 35.5605 50.5987 35.6598Z" fill="#2C2379"/>
<path d="M51.9837 35.9835C51.9837 36.0951 51.9276 36.1507 51.8165 36.1507C51.7136 36.1507 51.6621 36.0951 51.6621 35.9835V27.3665C51.6621 27.2548 51.7136 27.1987 51.8165 27.1987C51.9276 27.1987 51.9837 27.2548 51.9837 27.3665V35.9835Z" fill="#2C2379"/>
<path d="M56.3682 34.5294C56.3682 35.1049 56.2286 35.5318 55.9494 35.81C55.6702 36.0882 55.3073 36.2271 54.8607 36.2267C54.4347 36.2267 54.0797 36.0895 53.7957 35.8151C53.5117 35.5407 53.3695 35.112 53.3691 34.5289V33.0316C53.3691 32.9287 53.4252 32.8773 53.5364 32.8773C53.5574 32.8738 53.579 32.8754 53.5993 32.8819C53.6196 32.8885 53.6381 32.8997 53.6532 32.9148C53.6683 32.9299 53.6795 32.9484 53.6861 32.9687C53.6926 32.989 53.6942 33.0106 53.6907 33.0316V34.5289C53.6907 35.0334 53.7972 35.3919 54.0102 35.6042C54.2232 35.8165 54.5074 35.9225 54.8628 35.9222C55.2185 35.9222 55.5129 35.8112 55.7462 35.5893C55.9489 35.3972 56.0504 35.0437 56.0508 34.5289V33.0316C56.0508 32.9287 56.1022 32.8773 56.2051 32.8773C56.3162 32.8773 56.3723 32.9287 56.3723 33.0316L56.3682 34.5294Z" fill="#2C2379"/>
<path d="M60.174 33.5044C60.174 33.6043 60.1226 33.6536 60.0197 33.6536C59.9998 33.6536 59.878 33.5624 59.6544 33.3799C59.4415 33.2011 59.1719 33.1039 58.8939 33.1057C58.6207 33.1021 58.3537 33.1867 58.1324 33.347C58.0266 33.4182 57.9404 33.5149 57.8818 33.6282C57.8231 33.7415 57.794 33.8677 57.797 33.9953C57.797 34.2875 58.0484 34.5238 58.5512 34.7043C59.0541 34.8847 59.3052 35.1359 59.3045 35.458C59.3093 35.5669 59.2875 35.6753 59.2411 35.7739C59.1947 35.8725 59.125 35.9583 59.038 36.024C58.8515 36.1633 58.6235 36.2358 58.3907 36.2298C58.225 36.224 58.0611 36.1942 57.904 36.1413C57.6606 36.0723 57.5382 35.9941 57.5382 35.9051C57.5382 35.8069 57.5896 35.758 57.6925 35.758C57.7921 35.7741 57.8894 35.8022 57.9822 35.8418C58.1135 35.8935 58.2528 35.9218 58.3938 35.9252C58.7694 35.9252 58.9572 35.7744 58.9572 35.4729C58.9572 35.2924 58.826 35.1514 58.561 35.0505C58.1151 34.8598 57.8767 34.7543 57.8459 34.7341C57.5814 34.5736 57.4502 34.3225 57.4502 33.9804C57.4502 33.6188 57.6025 33.3273 57.9071 33.1057C58.1901 32.9014 58.5321 32.7953 58.881 32.8037C59.2387 32.7977 59.5877 32.9139 59.8704 33.133C60.0732 33.2889 60.174 33.4149 60.174 33.5044Z" fill="#2C2379"/>
<path d="M61.6344 30.7001C61.6344 30.9032 61.5229 31.0047 61.3 31.0047C61.0865 31.0047 60.9805 30.9018 60.9805 30.7001C60.9805 30.4984 61.0865 30.3955 61.3 30.3955C61.5233 30.3955 61.6348 30.497 61.6344 30.7001ZM61.4672 35.9831C61.4672 36.0947 61.4111 36.1503 61.3 36.1503C61.1971 36.1503 61.1456 36.0947 61.1456 35.9831V33.0313C61.1422 33.0103 61.1438 32.9887 61.1503 32.9684C61.1568 32.9481 61.1681 32.9296 61.1832 32.9145C61.1983 32.8994 61.2167 32.8882 61.237 32.8816C61.2574 32.8751 61.2789 32.8735 61.3 32.877C61.4111 32.877 61.4672 32.9284 61.4672 33.0313V35.9831Z" fill="#2C2379"/>
<path d="M66.1256 32.9542C66.1256 32.9844 65.5826 34.0191 64.4966 36.0582C64.4452 36.1503 64.3901 36.1961 64.3294 36.1961C64.2687 36.1961 64.2131 36.1503 64.1622 36.0592L62.5029 33.0448C62.4915 33.0211 62.486 32.9949 62.4869 32.9686C62.4869 32.8571 62.5384 32.8012 62.6413 32.8009C62.6707 32.8005 62.6996 32.8091 62.7241 32.8254C62.7487 32.8418 62.7677 32.8651 62.7787 32.8925L64.3315 35.7547L65.839 32.8775C65.8525 32.8534 65.8723 32.8335 65.8964 32.82C65.9204 32.8065 65.9478 32.7999 65.9754 32.8009C66.0752 32.8009 66.1256 32.8518 66.1256 32.9542Z" fill="#2C2379"/>
<path d="M70.0988 34.4017C70.0988 34.5426 70.0386 34.6126 69.9162 34.6126H67.0241C67.044 35.004 67.186 35.3201 67.4501 35.5608C67.7142 35.8016 68.044 35.9217 68.4395 35.921C68.7992 35.9267 69.1503 35.8115 69.4367 35.5938C69.7263 35.3756 69.8652 35.2665 69.8555 35.2665C69.9584 35.2665 70.0098 35.3216 70.0098 35.4312C70.0055 35.482 69.9839 35.5298 69.9486 35.5665C69.573 36.0059 69.0756 36.2256 68.4565 36.2256C67.9386 36.2256 67.5124 36.0647 67.1779 35.743C66.8435 35.4212 66.6759 35.0086 66.6752 34.5051C66.67 34.2788 66.712 34.054 66.7985 33.8449C66.8851 33.6358 67.0143 33.4471 67.1779 33.2908C67.505 32.9827 67.9356 32.8079 68.3849 32.801C68.8343 32.794 69.27 32.9554 69.6064 33.2533C69.9354 33.5561 70.0995 33.9389 70.0988 34.4017ZM69.749 34.308C69.7276 33.9761 69.5773 33.6657 69.3302 33.4431C69.0832 33.2178 68.7588 33.0965 68.4246 33.1046C68.0791 33.0973 67.7431 33.2179 67.481 33.4431C67.221 33.6597 67.0568 33.9701 67.0241 34.307L69.749 34.308Z" fill="#2C2379"/>
<path d="M29.506 33.3945L27.9625 30.7026C27.1683 31.2581 26.3169 31.7267 25.4229 32.1006L26.972 34.8079C27.8562 34.4114 28.7041 33.9385 29.506 33.3945Z" fill="#2C2379"/>
<path d="M28.7136 5.49414L26.8613 7.98334C27.688 8.48907 28.4582 9.08191 29.1586 9.7517L31.0196 7.24862C30.3032 6.59804 29.5316 6.01101 28.7136 5.49414Z" fill="#2C2379"/>
<path d="M32.1112 20.0002C32.1112 13.3116 26.6888 7.88916 20.0002 7.88916C13.3116 7.88916 7.88916 13.3116 7.88916 20.0002C7.8878 21.8947 8.33157 23.7631 9.18469 25.4547C10.0378 27.1462 11.2764 28.6137 12.8007 29.7388L16.7819 22.7827L18.4515 25.6999L15.3192 31.1723C16.8407 31.8085 18.476 32.1275 20.125 32.1098C21.7741 32.0921 23.4022 31.7381 24.9097 31.0694L18.5014 19.8741H21.8411L27.3994 29.5845C28.8662 28.4544 30.0539 27.0025 30.8709 25.3408C31.6878 23.6791 32.1122 21.8519 32.1112 20.0002Z" fill="#2C2379"/>
</g>
<defs>
<clipPath id="clip0">
<rect width="70.0988" height="40" fill="white"/>
</clipPath>
</defs>
</svg>
