<svg width="33" height="20" viewBox="0 0 33 20" fill="none" xmlns="http://www.w3.org/2000/svg">
<path d="M20.7397 9.99995C20.7397 15.524 16.2222 19.9999 10.6477 19.9999C5.07315 19.9999 0.555664 15.523 0.555664 9.99995C0.555664 4.47692 5.07426 0 10.6477 0C16.2211 0 20.7397 4.47692 20.7397 9.99995Z" fill="#E2574C"/>
<path d="M22.7684 0C20.5051 0 18.4214 0.747013 16.7376 1.99404L16.7457 1.99503C17.0768 2.312 17.4422 2.53508 17.7239 2.89998L15.6241 2.93299C15.295 3.26202 14.9952 3.62001 14.7125 3.99204H18.4153C18.697 4.32699 18.9574 4.61808 19.1937 4.98802H14.0412C13.8524 5.31003 13.6778 5.64104 13.5254 5.98499H19.7803C19.9438 6.32795 20.0902 6.587 20.2144 6.95004H13.1549C13.0429 7.29508 12.947 7.64802 12.8742 8.00799H20.5101C20.5849 8.35402 20.6423 8.67395 20.6818 9.00002H12.7228C12.6894 9.32905 12.6723 9.66302 12.6723 10.0001H20.7392C20.7392 10.3541 20.714 10.682 20.6777 11.0001H12.7228C12.7571 11.3391 12.8076 11.6721 12.8742 12.0001H20.498C20.4192 12.3241 20.3283 12.6501 20.2143 12.9881H13.1316C13.2386 13.3301 13.3689 13.6621 13.5112 13.9861H19.7803C19.6067 14.3501 19.4098 14.6411 19.1928 14.982H14.0232C14.2271 15.332 14.4522 15.666 14.6965 15.986L18.4154 16.041C18.0984 16.4179 17.6917 16.645 17.3211 16.975C17.3412 16.991 16.7285 16.973 15.5221 16.954C17.3574 18.8301 19.9226 20 22.7683 20C28.3438 20 32.8633 15.523 32.8633 10.0001C32.8633 4.47714 28.3448 0 22.7684 0Z" fill="#F4B459"/>
</svg>
