 <svg
            width="61"
            height="60"
            viewBox="0 0 61 60"
            fill="none"
            xmlns="http://www.w3.org/2000/svg"
          >
            <path
              fill-rule="evenodd"
              clip-rule="evenodd"
              d="M0.767456 0V60H60.7675V0H0.767456ZM57.1581 56.3438H4.42371V3.60938H57.1581V56.3438Z"
              fill="#9CA2A6"
            />
            <path
              d="M30.7675 20.4844C17.3143 20.4844 6.43933 24.75 6.43933 29.9531C6.43933 35.2031 17.3143 39.4219 30.7675 39.4219C44.2206 39.4219 55.0956 35.1563 55.0956 29.9531C55.0956 24.75 44.2206 20.4844 30.7675 20.4844ZM22.9393 34.9688L24.6737 28.4531L21.205 34.9688H18.955V28.4531H18.9081L17.1737 34.9688H14.2206L16.9393 24.7969H21.2518V30.75H21.2987L24.205 24.7969H28.5643L25.8456 34.9688H22.9393ZM32.4081 35.1563H29.2675L29.6425 33.7031H32.7831L32.4081 35.1563ZM32.8768 33.3281H29.7362L31.33 27.4219H28.4706L29.1737 24.7969H37.9862L37.33 27.4219H34.4706L32.8768 33.3281ZM44.7831 34.9688H41.8768L40.3768 29.4375H40.33L38.83 34.9688H35.9706L38.6893 24.7969H41.7831L43.1893 30.2344H43.2362L44.6893 24.7969H47.5487L44.7831 34.9688Z"
              fill="#9CA2A6"
            />
          </svg>