<svg width="20" height="20" viewBox="0 0 20 20" fill="none" xmlns="http://www.w3.org/2000/svg">
<path d="M17.9221 0H1.03895C0.467516 0 0 0.476179 0 1.05821V2.96296C0 3.54498 0.467516 4.02116 1.03895 4.02116H17.8701C18.4416 4.02116 18.9091 3.54498 18.9091 2.96296V1.05821C18.961 0.476179 18.4935 0 17.9221 0ZM17.9221 10.6349H1.03895C0.467516 10.6349 0 11.1111 0 11.6931V13.5979C0 14.1799 0.467516 14.6561 1.03895 14.6561H17.8701C18.4416 14.6561 18.9091 14.1799 18.9091 13.5979V11.6931C18.961 11.1111 18.4935 10.6349 17.9221 10.6349ZM10.5455 15.9788H1.03895C0.467516 15.9788 0 16.455 0 17.037V18.9418C0 19.5238 0.467516 20 1.03895 20H10.5455C11.1169 20 11.5844 19.5238 11.5844 18.9418V17.037C11.5844 16.455 11.1169 15.9788 10.5455 15.9788ZM18.961 5.34392H1.03895C0.467516 5.34392 0 5.8201 0 6.40209V8.30688C0 8.88887 0.467516 9.36508 1.03895 9.36508H18.961C19.5325 9.36508 20 8.88887 20 8.30688V6.40209C20 5.8201 19.5325 5.34392 18.961 5.34392Z" fill="#0BA4DB"/>
</svg>
