<svg width="64" height="64" viewBox="0 0 64 64" fill="none" xmlns="http://www.w3.org/2000/svg">
<g clip-path="url(#clip0)">
<path d="M44.6385 9.39761V13.1072C44.6385 14.1457 43.8225 14.962 42.7837 14.962H40.9289V9.39761C40.9289 8.3588 40.1129 7.54282 39.0741 7.54282H24.2359C23.1971 7.54282 22.3811 8.3588 22.3811 9.39761V14.962H20.5263C19.4875 14.962 18.6715 14.1457 18.6715 13.1072V9.39761C18.6715 6.31854 21.1568 3.83325 24.2359 3.83325H39.0741C42.1532 3.83325 44.6385 6.31854 44.6385 9.39761Z" fill="#2A1571"/>
<path d="M39.0742 7.54282H31.655V3.83325H39.0742C42.1532 3.83325 44.6385 6.31854 44.6385 9.39761V13.1072C44.6385 14.1457 43.8225 14.962 42.7837 14.962H40.929V9.39761C40.929 8.3588 40.113 7.54282 39.0742 7.54282Z" fill="#2A1571"/>
<path d="M63.31 13.1072V53.9125C63.31 56.9913 60.8247 59.4768 57.7456 59.4768H5.56436C2.48529 59.4768 0 56.9913 0 53.9125V13.1072C0 12.5879 0.222574 12.1427 0.556559 11.8087L10.0158 33.1018H53.2942L62.7536 11.8086C63.0874 12.1427 63.31 12.5879 63.31 13.1072Z" fill="#1D0E4F"/>
<path d="M63.31 13.1072V53.9125C63.31 56.9913 60.8247 59.4768 57.7457 59.4768H31.655V33.1018H53.2942L62.7536 11.8086C63.0875 12.1427 63.31 12.5879 63.31 13.1072Z" fill="#1D0E4F"/>
<path d="M62.7535 11.8088L57.0038 33.1018C56.3361 35.55 54.1476 37.2194 51.6249 37.2194H11.6854C9.1626 37.2194 6.97407 35.5501 6.30635 33.1018L0.556641 11.8088C0.890378 11.475 1.33553 11.2524 1.85487 11.2524H61.4553C61.9746 11.2524 62.4198 11.475 62.7535 11.8088Z" fill="#0A0320"/>
<path d="M62.7535 11.8088L57.0038 33.1018C56.336 35.55 54.1475 37.2194 51.6249 37.2194H31.655V11.2524H61.4552C61.9746 11.2524 62.4197 11.475 62.7535 11.8088Z" fill="#0A0320"/>
<path d="M38.5796 32.0259H24.7305C23.761 32.0259 22.9994 32.7875 22.9994 33.757V40.6815C22.9994 41.6509 23.761 42.4127 24.7305 42.4127H38.5796C39.5491 42.4127 40.3107 41.6509 40.3107 40.6815V33.757C40.3107 32.7875 39.5491 32.0259 38.5796 32.0259Z" fill="#B02E35"/>
</g>
<defs>
<clipPath id="clip0">
<rect width="63.31" height="63.31" fill="white"/>
</clipPath>
</defs>
</svg>
