<svg width="115" height="90" viewBox="0 0 115 90" fill="none" xmlns="http://www.w3.org/2000/svg">
<path d="M56.8216 37.1315C57.2768 32.9046 56.5614 31.0188 53.1149 30.7587C51.164 30.6936 50.1236 30.8887 49.7334 32.3194L48.2378 40.448C48.2378 40.448 47.5875 42.4639 50.2536 42.5939C52.9849 42.6589 56.0412 42.1387 56.8216 37.1315Z" fill="#9CA2A6"/>
<path d="M40.3696 58.3959C40.3696 58.3959 44.0112 38.1069 45.0517 32.5144C46.0922 26.9219 48.9534 27.2471 54.0257 27.2471C60.8537 28.2225 61.569 33.6849 61.0488 37.1965C59.358 45.7152 55.1962 46.4956 52.1398 46.8858C49.0835 47.2759 47.5228 46.3655 47.5228 46.3655L47.1977 46.8858C47.1977 46.8858 46.8725 48.5765 45.3118 57.9407C45.637 58.5259 62.9996 55.0794 69.0473 55.0794C88.1008 54.4941 96.3594 59.6314 96.3594 59.6314L104.813 0H30.1601L21.8364 54.8193C21.8364 54.8193 23.4621 55.9898 26.5185 57.0303C31.4607 58.9161 40.3696 58.3959 40.3696 58.3959ZM64.0401 28.0924H76.3306C76.3306 28.0924 78.6066 28.4176 77.6311 30.4985C76.6557 32.5794 66.121 48.3164 66.121 48.3164H74.5097C74.5097 48.3164 75.8103 48.7066 75.8103 50.1372C75.8103 51.5678 74.9649 51.7629 73.3392 51.7629C71.7135 51.7629 61.9592 51.7629 61.9592 51.7629C61.9592 51.7629 59.0979 50.7225 60.6586 48.3814C62.2193 46.0404 72.2337 31.4089 72.2337 31.4089H63.9101C63.9101 31.4089 62.4794 31.4739 62.4794 29.7182C62.4794 28.0924 64.0401 28.0924 64.0401 28.0924Z" fill="#9CA2A6"/>
<path d="M22.0313 62.9479C21.511 62.6228 20.8608 62.2326 20.0154 61.7774C14.618 59.5664 3.88824 61.2572 0.831888 72.0519C-2.15944 82.8467 3.30298 89.8698 11.0414 89.8698C15.9186 89.8698 18.8449 87.984 20.3405 86.5534C21.1209 85.838 21.1209 84.6675 20.3405 83.8872C19.6902 83.2369 18.6498 83.1719 17.9345 83.7571C16.4388 84.9276 14.2278 85.9681 11.5616 85.9681C1.41715 86.1632 3.95327 74.0028 6.48939 69.5158C10.7813 62.8829 16.829 64.6386 19.17 65.6791C19.3651 65.7441 19.6252 65.9392 19.9504 66.0693C20.7307 66.5245 21.7712 66.3294 22.3564 65.6141C23.0717 64.7687 22.9417 63.5332 22.0313 62.9479Z" fill="#9CA2A6"/>
<path d="M36.6628 68.7356H36.4027C35.4923 68.7356 34.777 69.4509 34.647 70.3613C34.3218 74.263 33.4114 84.0173 32.436 85.6431C31.2004 87.724 29.6397 87.5939 28.5342 87.3338C27.4288 87.0737 26.3883 85.578 26.7785 82.9769C27.0386 81.026 28.1441 74.0679 28.6643 70.5564C28.7944 69.5159 28.014 68.5405 26.9736 68.4755C26.0632 68.4755 25.2178 69.1258 25.1527 70.1012L23.397 85.1879C23.397 85.1879 23.397 89.8699 28.5342 89.8699C31.7207 89.8699 36.0126 89.0246 36.923 83.172C37.5732 79.0752 38.2235 73.6127 38.5487 70.6864C38.6137 69.646 37.7683 68.6705 36.6628 68.7356Z" fill="#9CA2A6"/>
<path d="M94.6685 68.5405C91.482 68.5405 87.1901 69.3859 86.2797 75.2385C85.6295 79.3353 84.9792 84.7977 84.654 87.724C84.524 88.8295 85.4344 89.7399 86.4748 89.7399H86.7349C87.6453 89.7399 88.3607 89.0246 88.4907 88.1142C88.8159 84.2125 89.7263 74.4581 90.7017 72.8324C91.9372 70.7515 93.4979 70.8816 94.6034 71.1417C95.7089 71.4018 96.7494 72.8975 96.3592 75.4986C96.0991 77.4495 94.9936 84.4075 94.4734 87.9191C94.3433 88.9596 95.1237 89.935 96.1641 90C97.0745 90 97.9199 89.3497 97.9849 88.3743L99.6757 73.3527C99.8057 73.2226 99.8057 68.5405 94.6685 68.5405Z" fill="#9CA2A6"/>
<path d="M77.6309 68.5405C74.4444 68.5405 70.1525 69.3859 69.2421 75.2385C69.1121 75.9538 69.0471 76.6691 68.917 77.4495L68.852 77.8396C68.7869 78.4899 68.6569 79.2053 68.5919 79.8555C68.5919 79.8555 68.5919 79.8555 68.5919 79.9206L68.5268 80.4408L68.0066 85.1879C68.0066 85.1879 68.3317 89.935 73.469 89.935C76.6554 89.935 80.9473 89.0896 81.8577 83.237C82.0528 82.0665 82.2479 80.7659 82.378 79.4003L82.6381 77.3194L83.0282 73.2226C83.1583 73.2876 82.8332 68.5405 77.6309 68.5405ZM77.4358 85.7732C76.2002 87.8541 74.6395 87.724 73.534 87.4639C72.4285 87.2038 71.3881 85.7081 71.7783 83.107C71.9083 82.0665 72.2985 79.6604 72.6887 77.0593V76.9943C72.6887 76.8642 72.7537 76.7342 72.7537 76.6691C73.0788 74.7833 73.339 73.2876 73.6641 72.7024C74.8996 70.6214 76.4603 70.7515 77.5658 71.0116C78.6713 71.2717 79.7118 72.7674 79.3216 75.3686C79.1915 76.409 78.8014 78.8151 78.4112 81.4162V81.4813C78.4112 81.5463 78.4112 81.5463 78.4112 81.6113C78.1511 83.5622 77.7609 85.1879 77.4358 85.7732Z" fill="#9CA2A6"/>
<path d="M47.5224 67.8899C45.5065 67.8899 40.8895 69.1905 40.9545 75.1731C41.0846 77.7743 43.6207 79.5301 46.2869 81.676C47.3924 82.7815 48.6929 85.7078 45.1164 86.8133C43.8808 87.0084 42.5802 86.6182 41.4097 86.0329C40.5643 85.6428 39.5889 85.9679 39.1987 86.7483C39.1987 86.7483 39.1987 86.7483 39.1987 86.8133C38.7435 87.7237 39.2638 88.7642 40.2392 89.0243C42.06 89.5445 44.9863 89.9997 47.5875 88.7642C49.8635 87.5286 52.6597 83.4318 50.1886 79.7252C47.7175 76.0185 43.8808 75.8234 45.5065 72.2468C46.3519 70.7512 48.2377 70.5561 49.9285 71.6616C50.4487 71.9867 51.099 71.9217 51.6192 71.5966C51.6192 71.5966 51.6192 71.5966 51.6843 71.5966C52.3996 71.0763 52.5947 69.9708 51.9444 69.3205C51.164 68.6052 49.8635 67.8249 47.5224 67.8899Z" fill="#9CA2A6"/>
<path d="M61.6987 67.8899C59.6828 67.8899 55.0658 69.1905 55.1308 75.1731C55.2608 77.7743 57.797 79.5301 60.4632 81.676C61.5686 82.7815 62.8692 85.7078 59.2926 86.8133C58.0571 87.0084 56.7565 86.6182 55.586 86.0329C54.7406 85.6428 53.7652 85.9679 53.375 86.7483C53.375 86.7483 53.375 86.7483 53.375 86.8133C52.9198 87.7237 53.44 88.7642 54.4155 89.0243C56.2363 89.5445 59.1626 89.9997 61.7637 88.7642C64.0397 87.5286 66.836 83.4318 64.3649 79.7252C61.8938 76.0185 58.0571 75.8234 59.6828 72.2468C60.5282 70.7512 62.414 70.5561 64.1048 71.6616C64.625 71.9867 65.2753 71.9217 65.7955 71.5966C65.7955 71.5966 65.7955 71.5966 65.8605 71.5966C66.5759 71.0763 66.7709 69.9708 66.1207 69.3205C65.4053 68.6052 64.1048 67.8249 61.6987 67.8899Z" fill="#9CA2A6"/>
<path d="M114.177 69.3205C113.462 68.5401 112.226 67.8248 109.82 67.8899C107.804 67.8899 103.187 69.1904 103.252 75.1731C103.382 77.7742 105.918 79.53 108.584 81.676C109.69 82.7815 110.991 85.7077 107.414 86.8132C106.178 87.0083 104.878 86.6182 103.707 86.0329C102.862 85.6427 101.887 85.9679 101.496 86.7482C101.496 86.7482 101.496 86.7482 101.496 86.8132C101.041 87.7236 101.561 88.7641 102.537 89.0242C104.358 89.5444 107.284 89.9996 109.885 88.7641C112.161 87.5286 114.957 83.4317 112.486 79.7251C110.015 76.0185 106.178 75.8234 107.804 72.2468C108.65 70.7511 110.535 70.556 112.226 71.6615C112.746 71.9867 113.397 71.9216 113.917 71.5965C113.917 71.5965 113.917 71.5965 113.982 71.5965C114.632 71.0763 114.762 69.9708 114.177 69.3205Z" fill="#9CA2A6"/>
</svg>
