<svg width="61" height="64" viewBox="0 0 61 64" fill="none" xmlns="http://www.w3.org/2000/svg">
<g clip-path="url(#clip0)">
<path d="M55.4207 9.89224C45.0543 9.89224 37.1126 6.80559 30.397 0C23.6821 6.80559 15.7408 9.89224 5.37524 9.89224C5.37524 27.6154 1.85639 53.0036 30.3968 63.3144C58.9394 53.0038 55.4207 27.6156 55.4207 9.89224Z" fill="#0A0320"/>
<path d="M20.5675 30.6947L23.1972 27.9541C23.5908 27.5439 24.2467 27.5439 24.6403 27.9541L27.9111 31.3628C28.3047 31.773 28.9606 31.773 29.3542 31.3628L36.5533 23.8601C36.9468 23.45 37.6028 23.45 37.9964 23.8601L40.1896 26.1458C40.5608 26.5328 40.5608 27.1436 40.1896 27.5305L28.9177 39.2778C28.5241 39.688 27.8682 39.688 27.4746 39.2778L20.5675 32.0794C20.1963 31.6925 20.1963 31.0816 20.5675 30.6947Z" fill="#B02E35"/>
</g>
<defs>
<clipPath id="clip0">
<rect width="60.752" height="63.3144" fill="white"/>
</clipPath>
</defs>
</svg>
