<svg width="19" height="15" viewBox="0 0 19 15" fill="none" xmlns="http://www.w3.org/2000/svg">
<path d="M18.4616 1.77577C17.775 2.07693 17.0435 2.27654 16.2808 2.37347C17.0654 1.905 17.6643 1.16885 17.9458 0.281539C17.2143 0.717694 16.4066 1.02577 15.5458 1.19769C14.8512 0.458078 13.8612 0 12.7812 0C10.6858 0 8.99886 1.70077 8.99886 3.78578C8.99886 4.08578 9.02425 4.37424 9.08656 4.64886C5.94001 4.49539 3.15578 2.98731 1.28539 0.690001C0.958848 1.25654 0.767309 1.905 0.767309 2.60308C0.767309 3.91385 1.44231 5.07578 2.44847 5.74847C1.84039 5.73693 1.24385 5.5604 0.738463 5.28232C0.738463 5.29386 0.738463 5.30886 0.738463 5.32386C0.738463 7.16309 2.05039 8.69079 3.77078 9.04271C3.4627 9.12694 3.12693 9.16733 2.77847 9.16733C2.53616 9.16733 2.29154 9.15348 2.06193 9.10271C2.55231 10.6016 3.94385 11.7035 5.59847 11.7393C4.31078 12.7466 2.67577 13.3535 0.905771 13.3535C0.595386 13.3535 0.297693 13.3396 0 13.3016C1.67654 14.3827 3.66347 15 5.80616 15C12.7708 15 16.5785 9.23079 16.5785 4.23001C16.5785 4.0627 16.5727 3.90116 16.5646 3.74078C17.3158 3.2077 17.947 2.54193 18.4616 1.77577Z" fill="white"/>
</svg>
