<svg width="59" height="20" viewBox="0 0 59 20" fill="none" xmlns="http://www.w3.org/2000/svg">
<path d="M18.6321 16.0977C17.5577 17.4839 16.2261 18.5341 14.6142 19.2171C13.1374 19.8437 11.5964 20.11 10.0018 19.9584C6.48326 19.6244 3.83923 17.8871 2.09129 14.799C1.09966 13.0477 0.707661 11.1343 0.918684 9.13109C1.32891 5.23662 3.33852 2.46483 6.85567 0.826612C8.28691 0.159884 9.81775 -0.0989069 11.3918 0.0335533C15.1568 0.348189 17.9082 2.22477 19.6639 5.58735C20.0478 6.32184 20.2949 7.11115 20.4702 7.92226C20.4637 7.99036 20.4087 8.01284 20.3604 8.04008C19.0568 8.7732 18.3214 9.91495 18.0159 11.3632C17.8714 12.0493 17.8538 12.7419 17.9068 13.4403C17.9744 14.328 18.1786 15.1722 18.6081 15.955C18.6327 15.9989 18.6618 16.0439 18.6321 16.0977Z" fill="#EE342C"/>
<path d="M26.9796 10.1811C26.5123 8.89056 25.674 7.96334 24.3312 7.59048C23.0097 7.22374 21.7162 7.33884 20.4686 7.92214C19.268 8.55482 18.4658 9.53277 18.1052 10.8407C17.6085 12.6522 17.7253 14.4198 18.6285 16.0982C19.3757 17.2883 20.4659 17.9711 21.8121 18.2523C23.529 18.6095 25.2101 18.4025 26.8665 17.8798C26.9793 17.8441 26.9938 17.7862 26.9806 17.6823C26.8888 16.974 26.8005 16.2653 26.7159 15.5561C26.7041 15.457 26.6784 15.4366 26.5836 15.4639C26.0754 15.6089 25.5575 15.7165 25.0338 15.7856C24.2458 15.8912 23.4547 15.9559 22.6704 15.7649C21.6517 15.5153 20.9447 14.9214 20.6783 13.8641C20.6267 13.6574 20.63 13.6564 20.8471 13.6564C22.9405 13.6564 25.0338 13.6564 27.1272 13.6564C27.2332 13.6564 27.3017 13.6523 27.3169 13.5151C27.4442 12.3788 27.3709 11.2612 26.9796 10.1811ZM24.6411 11.5272C23.3539 11.5272 22.0667 11.5272 20.7796 11.5272C20.7408 11.5272 20.7003 11.5353 20.6648 11.5105C20.7023 10.3694 21.5896 9.48749 22.7021 9.48646C23.8274 9.48646 24.7117 10.3575 24.7556 11.5115C24.7202 11.536 24.6796 11.5268 24.6411 11.5272Z" fill="white"/>
<path d="M57.9111 10.244C57.5293 9.13768 56.8645 8.26903 55.7783 7.78311C54.8623 7.3745 53.8973 7.30265 52.9195 7.4552C50.9123 7.76813 49.6067 8.92179 49.003 10.8712C48.6778 11.9193 48.6755 12.995 48.8395 14.0721C48.9922 15.0708 49.346 15.9878 50.027 16.7492C50.969 17.8021 52.1943 18.2475 53.554 18.3871C54.3356 18.4678 55.1155 18.4266 55.8921 18.319C56.5329 18.2334 57.164 18.0851 57.7764 17.8763C57.8399 17.8542 57.9115 17.8511 57.8963 17.7347C57.8004 17.01 57.713 16.2841 57.6262 15.5581C57.6147 15.4617 57.588 15.4362 57.4911 15.4634C56.7767 15.6663 56.0442 15.7978 55.3043 15.856C54.6408 15.9085 53.9773 15.9085 53.3348 15.6974C52.4165 15.3957 51.8091 14.7943 51.5791 13.8293C51.5427 13.6761 51.5849 13.6526 51.7263 13.6532C52.7781 13.6584 53.8301 13.656 54.8822 13.656C55.9401 13.656 56.9981 13.656 58.056 13.656C58.1471 13.656 58.2069 13.656 58.2221 13.5307C58.3592 12.4117 58.2802 11.3122 57.9111 10.244ZM55.649 11.5458C55.5845 11.5182 55.5163 11.5274 55.4494 11.5274C54.2164 11.5274 52.9832 11.5274 51.75 11.5274C51.6895 11.5274 51.6267 11.5434 51.5687 11.5121C51.6325 10.5246 52.2949 9.70736 53.1738 9.52995C54.241 9.31475 55.1442 9.82348 55.5102 10.8546C55.5906 11.0755 55.6861 11.2986 55.6503 11.5458H55.649Z" fill="white"/>
<path d="M47.7107 7.64161C47.2522 9.31807 46.726 10.9724 46.1322 12.6046C45.4569 14.4502 44.7033 16.2597 43.8025 18.0055C43.7421 18.1227 43.6786 18.1645 43.5466 18.1632C42.8713 18.155 42.1961 18.155 41.5208 18.1632C41.3894 18.1649 41.3243 18.1244 41.2638 18.0069C40.2732 16.084 39.4558 14.0862 38.7346 12.0479C38.2386 10.6453 37.7892 9.22772 37.4009 7.79143C37.3868 7.73968 37.3523 7.68928 37.3841 7.63037C37.4202 7.60824 37.4604 7.61573 37.4989 7.61573C38.3961 7.61573 39.2929 7.61573 40.1895 7.61573C40.233 7.61573 40.28 7.60245 40.3191 7.63514C40.6911 9.20361 41.1412 10.7522 41.6677 12.275C41.9189 13.002 42.1866 13.7225 42.478 14.4335C42.4928 14.4699 42.5117 14.505 42.5394 14.5697C42.7292 14.077 42.9152 13.6105 43.0888 13.1396C43.7518 11.3409 44.305 9.50302 44.7452 7.63616C44.779 7.60415 44.8191 7.61505 44.8573 7.61505C45.7669 7.61505 46.6767 7.61505 47.5867 7.61505C47.6293 7.61368 47.6793 7.59121 47.7107 7.64161Z" fill="white"/>
<path d="M33.8061 9.94712C33.3671 9.98117 32.9667 10.1123 32.6145 10.3826C32.6125 10.3976 32.6047 10.4034 32.5902 10.398C32.5278 10.4531 32.5602 10.526 32.5602 10.5893C32.5582 13.049 32.5587 15.5086 32.5619 17.9683C32.5619 18.1191 32.5281 18.1644 32.3731 18.1631C31.5078 18.1545 30.6421 18.1593 29.7767 18.1583C29.7156 18.1583 29.6541 18.1505 29.5927 18.146C29.5464 18.098 29.5691 18.0381 29.5691 17.9843C29.5677 14.9169 29.5677 11.8496 29.5691 8.78222C29.5691 8.72876 29.5458 8.66848 29.593 8.62081C30.4908 7.98541 31.4963 7.63638 32.5764 7.5012C33.5884 7.37838 34.6138 7.4331 35.6073 7.66294C35.763 7.697 35.812 7.74263 35.7762 7.91833C35.636 8.59936 35.5142 9.28584 35.395 9.97163C35.373 10.098 35.3308 10.1078 35.2231 10.0738C34.9922 10.0036 34.7572 9.94712 34.5141 9.94541C34.2774 9.94916 34.0417 9.94848 33.8061 9.94712Z" fill="white"/>
<path d="M6.91946 4.46785C7.11529 4.91937 7.25946 5.3903 7.42592 5.85204C8.44119 8.63882 9.52702 11.3966 10.7084 14.116C10.725 14.1541 10.727 14.2042 10.7888 14.2355C10.9765 13.798 11.1656 13.3648 11.3489 12.929C12.5054 10.1803 13.5793 7.39946 14.5706 4.58635C14.5883 4.54546 14.6092 4.50606 14.6331 4.46853C14.6814 4.41303 14.7472 4.42971 14.8066 4.42971C15.8101 4.42971 16.8137 4.42971 17.8173 4.42971C17.8771 4.42971 17.9426 4.41473 17.9916 4.46853C18.0206 4.54787 17.9713 4.61189 17.9473 4.67863C16.6511 8.30375 15.1443 11.8403 13.499 15.318C13.0759 16.2125 12.6296 17.0962 12.2004 17.9876C12.1386 18.1167 12.0677 18.1657 11.9215 18.164C11.1511 18.1559 10.3806 18.1576 9.61008 18.164C9.4882 18.164 9.42202 18.1334 9.36462 18.0186C7.53058 14.3554 5.85929 10.6192 4.38686 6.79459C4.11675 6.09279 3.86116 5.38486 3.60185 4.67863C3.57788 4.61291 3.52791 4.54787 3.561 4.46887C3.60962 4.41439 3.67512 4.42937 3.73488 4.42937C4.73834 4.42937 5.7419 4.42937 6.74558 4.42937C6.80467 4.42937 6.87219 4.41269 6.91946 4.46785Z" fill="white"/>
<path d="M6.91892 4.46753H3.56046C3.54357 4.45698 3.5223 4.44778 3.55134 4.42701C3.59253 4.40045 3.63879 4.41101 3.68268 4.41101C4.73205 4.41101 5.7812 4.41101 6.83012 4.41101C6.87401 4.41101 6.92027 4.40045 6.96112 4.42735L6.91892 4.46753Z" fill="white"/>
<path d="M17.9947 4.4677H14.6362L14.5937 4.4282C14.6349 4.4013 14.6811 4.41186 14.725 4.41186C15.774 4.41186 16.823 4.41186 17.8721 4.41186C17.9164 4.41186 17.9623 4.4013 18.0038 4.42786C18.0325 4.44864 18.0123 4.45783 17.9947 4.4677Z" fill="white"/>
<path d="M6.96258 4.42831H3.55246C3.59669 4.37621 3.65645 4.39426 3.71014 4.39426C4.74173 4.39426 5.77332 4.39426 6.80491 4.39426C6.85893 4.39494 6.91903 4.37621 6.96258 4.42831Z" fill="white"/>
<path d="M18.0038 4.42782H14.5937C14.6376 4.37572 14.6977 4.39377 14.7514 4.39377C15.7827 4.39377 16.8143 4.39377 17.8461 4.39377C17.8998 4.39479 17.9596 4.37572 18.0038 4.42782Z" fill="white"/>
<path d="M12.0553 18.2119H9.465V18.1959H12.0509L12.0553 18.2119Z" fill="white"/>
</svg>
