<svg width="52" height="16" viewBox="0 0 52 16" fill="none" xmlns="http://www.w3.org/2000/svg">
<path d="M34.8918 -3.56324e-06C35.3513 0.176909 35.8467 0.17792 36.3191 0.29721C37.5067 0.600489 37.5067 0.585325 37.2929 1.77317C37.1781 2.40803 37.0662 3.0429 36.9713 3.68181C36.9334 3.94161 36.8714 3.99216 36.6117 3.87793C35.3319 3.29883 33.9141 3.10611 32.5287 3.32293C32.0983 3.37469 31.6938 3.55808 31.3691 3.84861C30.9316 4.25298 30.9116 4.80899 31.3192 5.24572C31.6458 5.5955 32.0653 5.81386 32.4778 6.04031C33.2668 6.46995 34.1088 6.80255 34.8579 7.31711C35.7568 7.94288 36.5418 8.694 36.7556 9.81917C37.1161 11.6853 36.5029 13.226 35.0496 14.4088C33.93 15.3186 32.5966 15.723 31.1963 15.8989C29.2639 16.1293 27.3052 15.9478 25.4463 15.3661C25.0947 15.259 24.9199 15.1437 25.0178 14.6979C25.2295 13.7234 25.3634 12.7317 25.5342 11.7177C26.2972 12.0392 27.0323 12.3748 27.8234 12.5446C28.8372 12.763 29.8579 12.8479 30.8867 12.668C31.0928 12.6338 31.294 12.5744 31.4859 12.4911C31.9804 12.2767 32.4058 11.9856 32.4847 11.379C32.5636 10.7725 32.2061 10.4227 31.7756 10.1154C31.1973 9.70392 30.5461 9.42996 29.9169 9.11354C29.33 8.82817 28.7746 8.48084 28.2599 8.07733C26.3522 6.54881 26.1374 4.12055 27.7535 2.27156C28.8422 1.02508 30.2744 0.451882 31.8485 0.148603C32.1092 0.0980567 32.3869 0.135461 32.6296 -0.00708008H33.8821C33.9561 0.0247568 34.0358 0.0411647 34.1163 0.0411647C34.1967 0.0411647 34.2764 0.0247568 34.3505 -0.00708008L34.8918 -3.56324e-06Z" fill="white"/>
<path d="M0 0.39622C0.0908899 0.247613 0.234716 0.258733 0.37954 0.258733C2.45003 0.258733 4.52152 0.258733 6.59202 0.258733C6.90475 0.25816 7.21626 0.298251 7.51889 0.378023C8.14813 0.545838 8.54265 0.957286 8.67349 1.59114C9.10897 3.68983 9.52347 5.79257 9.94595 7.89328C9.96893 8.00752 9.99689 8.11973 10.0219 8.23296C10.0068 8.24409 9.98937 8.25145 9.97097 8.25444C9.95256 8.25743 9.93372 8.25595 9.91599 8.25014C9.6553 7.89025 9.47852 7.48082 9.25579 7.09768C8.1701 5.23352 6.65893 3.80306 4.84713 2.68295C4.68033 2.58185 4.50854 2.48581 4.39667 2.31598C3.01335 1.53554 1.56211 0.935046 0 0.633789V0.39622Z" fill="#F9A51A"/>
<path d="M34.3435 0C34.2789 0.057849 34.1956 0.0897807 34.1093 0.0897807C34.023 0.0897807 33.9397 0.057849 33.8751 0L34.3435 0Z" fill="#216CAC"/>
<path d="M50.6926 11.7936L48.2566 0.606619C48.2166 0.42263 48.1807 0.277056 47.919 0.28211C46.8633 0.30334 45.8076 0.294241 44.7518 0.298285C43.753 0.298285 43.1048 0.775444 42.7033 1.70651C40.8945 5.88974 39.0627 10.0629 37.2389 14.2421C37.0252 14.732 36.8128 15.2223 36.6017 15.713C36.6536 15.7402 36.6746 15.7615 36.6956 15.7615C38.0509 15.7615 39.4063 15.7615 40.7617 15.7726C40.9554 15.7726 41.0004 15.6624 41.0523 15.5239C41.272 14.9325 41.5008 14.3452 41.7095 13.7497C41.7844 13.5354 41.8813 13.4464 42.125 13.4464C43.7144 13.4606 45.3042 13.4606 46.8942 13.4464C47.1329 13.4464 47.2099 13.5364 47.2498 13.7497C47.3167 14.1127 47.4056 14.4705 47.4815 14.8304C47.6813 15.7675 47.6813 15.7675 48.6062 15.7675H51.5556L50.6926 11.7936ZM46.1252 10.2853C45.1134 10.2701 44.1016 10.2792 43.0359 10.2792L45.2512 4.4805C45.6557 6.36589 46.0273 8.14412 46.4258 9.91527C46.4987 10.2388 46.4228 10.2903 46.1252 10.2853Z" fill="white"/>
<path d="M4.39465 2.31602C6.82271 3.68078 8.7334 5.54393 9.888 8.14101C9.90701 8.17544 9.93016 8.20736 9.95692 8.23603C10.0818 8.30073 10.0268 8.44934 10.0928 8.53931L10.5921 10.824C11.0726 9.58563 11.522 8.42912 11.9705 7.27161C12.8194 5.05464 13.6834 2.83767 14.5294 0.614628C14.6233 0.368972 14.7291 0.272934 15.0018 0.276978C16.2403 0.293152 17.4788 0.284054 18.7183 0.285065C18.8182 0.285065 18.9181 0.297196 19.0689 0.306295C18.8422 0.843099 18.6294 1.34856 18.4147 1.85403C16.4997 6.3648 14.587 10.8773 12.6766 15.3914C12.5518 15.6866 12.404 15.7665 12.1023 15.7624C10.8771 15.7456 9.65162 15.7456 8.42577 15.7624C8.16908 15.7624 8.0682 15.6866 8.00129 15.4419C6.80473 11.066 5.60252 6.69066 4.39465 2.31602Z" fill="white"/>
<path d="M22.8434 0.262837C23.4427 0.262837 24.042 0.272947 24.6412 0.257783C24.8859 0.251717 24.9409 0.303275 24.8979 0.567127C24.3985 3.46142 23.9211 6.35976 23.4337 9.26113C23.0861 11.3255 22.7275 13.3888 22.391 15.4561C22.35 15.7088 22.2701 15.7766 22.0264 15.7735C20.8398 15.7614 19.6533 15.7634 18.4677 15.7735C18.231 15.7735 18.1681 15.7372 18.21 15.4703C18.7044 12.5891 19.1828 9.70796 19.6673 6.82074C20.0168 4.74328 20.3764 2.66683 20.715 0.586335C20.7559 0.337646 20.8348 0.253739 21.0825 0.260815C21.6738 0.273958 22.2571 0.262837 22.8434 0.262837Z" fill="white"/>
<path d="M10.0879 8.54031C9.99597 8.46045 9.98798 8.33813 9.95203 8.23704C9.9752 8.23349 9.99877 8.23349 10.0219 8.23704C10.1148 8.31993 10.0879 8.43315 10.0879 8.54031Z" fill="#DFAF57"/>
</svg>
